<svg width="27" height="27" viewBox="0 0 27 27" fill="none" xmlns="http://www.w3.org/2000/svg">
<path d="M19.6165 22.4254C19.6165 22.7237 19.498 23.0099 19.287 23.2209C19.076 23.4318 18.7899 23.5504 18.4915 23.5504C18.1931 23.5504 17.907 23.4318 17.696 23.2209C17.485 23.0099 17.3665 22.7237 17.3665 22.4254C17.3665 22.127 17.485 21.8408 17.696 21.6299C17.907 21.4189 18.1931 21.3004 18.4915 21.3004C18.7899 21.3004 19.076 21.4189 19.287 21.6299C19.498 21.8408 19.6165 22.127 19.6165 22.4254ZM6.99738 17.6261L5.93426 5.36361C5.91808 5.15132 5.82224 4.953 5.66597 4.80841C5.50969 4.66382 5.30454 4.58365 5.09163 4.58398H4.00488C3.8557 4.58398 3.71262 4.52472 3.60714 4.41923C3.50165 4.31374 3.44238 4.17067 3.44238 4.02148C3.44238 3.8723 3.50165 3.72923 3.60714 3.62374C3.71262 3.51825 3.8557 3.45898 4.00488 3.45898H5.09163C5.58808 3.45868 6.06632 3.64595 6.43056 3.98328C6.7948 4.32061 7.01815 4.7831 7.05588 5.27811L7.21226 7.32336H21.871C22.8666 7.32336 23.6451 8.17836 23.5518 9.16611L22.8003 17.6261C22.735 18.3236 22.4117 18.9716 21.8938 19.4433C21.3759 19.915 20.7007 20.1765 20.0001 20.1765H9.79751C9.09699 20.1765 8.4217 19.915 7.9038 19.4433C7.3859 18.9716 7.06267 18.3236 6.99738 17.6261ZM7.30563 8.44836L8.11788 17.5226C8.15736 17.9408 8.35137 18.3292 8.66199 18.6119C8.9726 18.8946 9.37749 19.0514 9.79751 19.0515H20.0001C20.4202 19.0514 20.825 18.8946 21.1357 18.6119C21.4463 18.3292 21.6403 17.9408 21.6798 17.5226L22.4313 9.06486C22.4388 8.98677 22.4299 8.90797 22.4052 8.83352C22.3804 8.75907 22.3404 8.69062 22.2876 8.63256C22.2349 8.5745 22.1706 8.52812 22.0988 8.4964C22.0271 8.46467 21.9495 8.44831 21.871 8.44836H7.30563ZM12.3164 22.4254C12.3164 22.7237 12.1979 23.0099 11.9869 23.2209C11.7759 23.4318 11.4898 23.5504 11.1914 23.5504C10.893 23.5504 10.6069 23.4318 10.3959 23.2209C10.1849 23.0099 10.0664 22.7237 10.0664 22.4254C10.0664 22.127 10.1849 21.8408 10.3959 21.6299C10.6069 21.4189 10.893 21.3004 11.1914 21.3004C11.4898 21.3004 11.7759 21.4189 11.9869 21.6299C12.1979 21.8408 12.3164 22.127 12.3164 22.4254Z" fill="white"/>
</svg>
