<svg width="500" height="500" viewBox="0 0 500 500" fill="none" xmlns="http://www.w3.org/2000/svg">
<path d="M417.407 72.036L443.888 72.0361L443.888 60.8461L417.407 60.846L417.407 72.036Z" stroke="#EBEBEB" stroke-width="0.75" stroke-miterlimit="10"/>
<path d="M432.178 57.9268H458.659V46.7368H432.178V57.9268Z" stroke="#EBEBEB" stroke-width="0.75" stroke-miterlimit="10"/>
<path d="M249.999 182.158H276.48V170.968H249.999V182.158Z" stroke="#EBEBEB" stroke-width="0.75" stroke-miterlimit="10"/>
<path d="M264.771 168.049H291.252V156.859H264.771V168.049Z" stroke="#EBEBEB" stroke-width="0.75" stroke-miterlimit="10"/>
<path d="M279.485 182.158H305.966V170.968H279.485V182.158Z" stroke="#EBEBEB" stroke-width="0.75" stroke-miterlimit="10"/>
<path d="M41.3413 57.9268H67.8223V46.7368H41.3413V57.9268Z" stroke="#EBEBEB" stroke-width="0.75" stroke-miterlimit="10"/>
<path d="M56.1118 321.037H82.5928V309.847H56.1118V321.037Z" stroke="#EBEBEB" stroke-width="0.75" stroke-miterlimit="10"/>
<path d="M41.3413 306.928H67.8223V295.738H41.3413V306.928Z" stroke="#EBEBEB" stroke-width="0.75" stroke-miterlimit="10"/>
<path d="M417.407 321.037L443.888 321.037L443.888 309.847L417.407 309.847L417.407 321.037Z" stroke="#EBEBEB" stroke-width="0.75" stroke-miterlimit="10"/>
<path d="M208.82 421.54V295.877L235.551 259.395V191.059" stroke="#EBEBEB" stroke-miterlimit="10"/>
<path d="M233.177 188.725C233.177 190.037 234.24 191.1 235.552 191.1C236.864 191.1 237.927 190.037 237.927 188.725C237.927 187.413 236.864 186.35 235.552 186.35C234.24 186.35 233.177 187.414 233.177 188.725Z" stroke="#EBEBEB" stroke-miterlimit="10"/>
<path d="M215.706 421.54V300.285L242.436 263.802V216.057" stroke="#EBEBEB" stroke-miterlimit="10"/>
<path d="M240.062 213.723C240.062 215.035 241.125 216.098 242.437 216.098C243.749 216.098 244.812 215.035 244.812 213.723C244.812 212.411 243.749 211.348 242.437 211.348C241.126 211.348 240.062 212.411 240.062 213.723Z" stroke="#EBEBEB" stroke-miterlimit="10"/>
<path d="M202.188 421.54V255.13" stroke="#EBEBEB" stroke-miterlimit="10"/>
<path d="M199.812 252.755C199.812 254.067 200.875 255.13 202.188 255.13C203.5 255.13 204.562 254.067 204.562 252.755C204.562 251.443 203.5 250.38 202.188 250.38C200.877 250.38 199.812 251.443 199.812 252.755Z" stroke="#EBEBEB" stroke-miterlimit="10"/>
<path d="M195.802 421.54V336.965L177.654 302.735V241.372" stroke="#EBEBEB" stroke-miterlimit="10"/>
<path d="M175.279 238.997C175.279 240.309 176.342 241.372 177.654 241.372C178.966 241.372 180.029 240.309 180.029 238.997C180.029 237.685 178.966 236.622 177.654 236.622C176.342 236.622 175.279 237.685 175.279 238.997Z" stroke="#EBEBEB" stroke-miterlimit="10"/>
<path d="M189.454 421.539V340.621L168.059 302.78V262.365" stroke="#EBEBEB" stroke-miterlimit="10"/>
<path d="M165.684 259.99C165.684 261.302 166.747 262.365 168.059 262.365C169.371 262.365 170.434 261.302 170.434 259.99C170.434 258.678 169.371 257.615 168.059 257.615C166.748 257.615 165.684 258.678 165.684 259.99Z" stroke="#EBEBEB" stroke-miterlimit="10"/>
<path d="M110.723 37.556V0" stroke="#C7C7C7" stroke-miterlimit="10"/>
<path d="M133.929 59.9247L132.063 64.0287H89.3776L87.5166 59.9247L105.689 47.3467H115.757L133.929 59.9247Z" fill="#EBEBEB"/>
<path d="M117.018 35.2275L115.757 47.3465H105.689L104.428 35.2275H117.018Z" fill="#DBDBDB"/>
<path d="M133.927 59.9268L132.061 64.0298H89.3756L87.5146 59.9268H133.927Z" fill="#DBDBDB"/>
<path d="M203.574 37.556V0" stroke="#C7C7C7" stroke-miterlimit="10"/>
<path d="M226.78 59.9247L224.914 64.0287H182.229L180.368 59.9247L198.54 47.3467H208.608L226.78 59.9247Z" fill="#EBEBEB"/>
<path d="M209.869 35.2275L208.608 47.3465H198.54L197.279 35.2275H209.869Z" fill="#DBDBDB"/>
<path d="M226.778 59.9268L224.912 64.0298H182.227L180.366 59.9268H226.778Z" fill="#DBDBDB"/>
<path d="M296.427 37.556V0" stroke="#C7C7C7" stroke-miterlimit="10"/>
<path d="M319.633 59.9247L317.767 64.0287H275.082L273.221 59.9247L291.393 47.3467H301.461L319.633 59.9247Z" fill="#EBEBEB"/>
<path d="M302.722 35.2275L301.461 47.3465H291.393L290.132 35.2275H302.722Z" fill="#DBDBDB"/>
<path d="M319.631 59.9268L317.765 64.0298H275.08L273.219 59.9268H319.631Z" fill="#DBDBDB"/>
<path d="M389.278 37.556V0" stroke="#C7C7C7" stroke-miterlimit="10"/>
<path d="M412.484 59.9247L410.617 64.0287H367.933L366.072 59.9247L384.244 47.3467H394.312L412.484 59.9247Z" fill="#EBEBEB"/>
<path d="M395.573 35.2275L394.312 47.3465H384.244L382.983 35.2275H395.573Z" fill="#DBDBDB"/>
<path d="M412.482 59.9268L410.616 64.0298H367.931L366.07 59.9268H412.482Z" fill="#DBDBDB"/>
<path d="M183.794 460.398C242.564 460.398 290.207 452.793 290.207 443.412C290.207 434.031 242.564 426.426 183.794 426.426C125.024 426.426 77.3809 434.031 77.3809 443.412C77.3809 452.793 125.024 460.398 183.794 460.398Z" fill="#EBEBEB"/>
<path d="M332.395 176.42H267.374V421.592H332.395V176.42Z" fill="#37474F"/>
<path d="M452.057 176.42H332.395V421.592H452.057V176.42Z" fill="#455A64"/>
<path d="M444.579 389.794H341.367V413.63H444.579V389.794Z" fill="#37474F"/>
<path d="M404.462 393.73H345.712V395.742H404.462V393.73Z" fill="#455A64"/>
<path d="M404.462 397.218H345.712V399.23H404.462V397.218Z" fill="#455A64"/>
<path d="M404.462 400.705H345.712V402.717H404.462V400.705Z" fill="#455A64"/>
<path d="M404.462 404.192H345.712V406.204H404.462V404.192Z" fill="#455A64"/>
<path d="M404.462 407.681H345.712V409.693H404.462V407.681Z" fill="#455A64"/>
<path d="M415.173 395.725C415.173 396.827 414.28 397.72 413.178 397.72C412.076 397.72 411.183 396.827 411.183 395.725C411.183 394.623 412.076 393.73 413.178 393.73C414.28 393.73 415.173 394.623 415.173 395.725Z" fill="#D2AC47"/>
<path d="M421.75 395.725C421.75 396.827 420.857 397.72 419.755 397.72C418.653 397.72 417.76 396.827 417.76 395.725C417.76 394.623 418.653 393.73 419.755 393.73C420.857 393.73 421.75 394.623 421.75 395.725Z" fill="#D2AC47"/>
<path d="M428.328 395.725C428.328 396.827 427.435 397.72 426.333 397.72C425.231 397.72 424.338 396.827 424.338 395.725C424.338 394.623 425.231 393.73 426.333 393.73C427.435 393.73 428.328 394.623 428.328 395.725Z" fill="#D2AC47"/>
<path d="M434.905 395.725C434.905 396.827 434.012 397.72 432.91 397.72C431.808 397.72 430.915 396.827 430.915 395.725C430.915 394.623 431.808 393.73 432.91 393.73C434.012 393.73 434.905 394.623 434.905 395.725Z" fill="#D2AC47"/>
<path d="M441.481 395.725C441.481 396.827 440.588 397.72 439.486 397.72C438.384 397.72 437.491 396.827 437.491 395.725C437.491 394.623 438.384 393.73 439.486 393.73C440.588 393.73 441.481 394.623 441.481 395.725Z" fill="#D2AC47"/>
<path d="M415.173 401.712C415.173 402.814 414.28 403.707 413.178 403.707C412.076 403.707 411.183 402.814 411.183 401.712C411.183 400.61 412.076 399.717 413.178 399.717C414.28 399.717 415.173 400.61 415.173 401.712Z" fill="#D2AC47"/>
<path d="M421.75 401.712C421.75 402.814 420.857 403.707 419.755 403.707C418.653 403.707 417.76 402.814 417.76 401.712C417.76 400.61 418.653 399.717 419.755 399.717C420.857 399.716 421.75 400.61 421.75 401.712Z" fill="#D2AC47"/>
<path d="M428.328 401.712C428.328 402.814 427.435 403.707 426.333 403.707C425.231 403.707 424.338 402.814 424.338 401.712C424.338 400.61 425.231 399.717 426.333 399.717C427.435 399.717 428.328 400.61 428.328 401.712Z" fill="#D2AC47"/>
<path d="M434.905 401.712C434.905 402.814 434.012 403.707 432.91 403.707C431.808 403.707 430.915 402.814 430.915 401.712C430.915 400.61 431.808 399.717 432.91 399.717C434.012 399.717 434.905 400.61 434.905 401.712Z" fill="#D2AC47"/>
<path d="M441.481 401.712C441.481 402.814 440.588 403.707 439.486 403.707C438.384 403.707 437.491 402.814 437.491 401.712C437.491 400.61 438.384 399.717 439.486 399.717C440.588 399.716 441.481 400.61 441.481 401.712Z" fill="#D2AC47"/>
<path d="M413.178 409.691C414.279 409.691 415.173 408.798 415.173 407.696C415.173 406.594 414.279 405.701 413.178 405.701C412.076 405.701 411.183 406.594 411.183 407.696C411.183 408.798 412.076 409.691 413.178 409.691Z" fill="#D2AC47"/>
<path d="M421.75 407.696C421.75 408.798 420.857 409.691 419.755 409.691C418.653 409.691 417.76 408.798 417.76 407.696C417.76 406.594 418.653 405.701 419.755 405.701C420.857 405.701 421.75 406.594 421.75 407.696Z" fill="#D2AC47"/>
<path d="M426.332 409.691C427.434 409.691 428.327 408.798 428.327 407.696C428.327 406.594 427.434 405.701 426.332 405.701C425.23 405.701 424.337 406.594 424.337 407.696C424.337 408.798 425.23 409.691 426.332 409.691Z" fill="#D2AC47"/>
<path d="M434.905 407.696C434.905 408.798 434.012 409.691 432.91 409.691C431.808 409.691 430.915 408.798 430.915 407.696C430.915 406.594 431.808 405.701 432.91 405.701C434.012 405.701 434.905 406.594 434.905 407.696Z" fill="#D2AC47"/>
<path d="M441.481 407.696C441.481 408.798 440.588 409.691 439.486 409.691C438.384 409.691 437.491 408.798 437.491 407.696C437.491 406.594 438.384 405.701 439.486 405.701C440.588 405.701 441.481 406.594 441.481 407.696Z" fill="#D2AC47"/>
<path d="M408.546 393.73H407.397V409.692H408.546V393.73Z" fill="#263238"/>
<path d="M444.579 361.066H341.367V384.902H444.579V361.066Z" fill="#37474F"/>
<path d="M404.462 365.003H345.712V367.015H404.462V365.003Z" fill="#455A64"/>
<path d="M404.462 368.491H345.712V370.503H404.462V368.491Z" fill="#455A64"/>
<path d="M404.462 371.978H345.712V373.99H404.462V371.978Z" fill="#455A64"/>
<path d="M404.462 375.466H345.712V377.478H404.462V375.466Z" fill="#455A64"/>
<path d="M404.462 378.953H345.712V380.965H404.462V378.953Z" fill="#455A64"/>
<path d="M415.173 366.998C415.173 368.1 414.28 368.993 413.178 368.993C412.076 368.993 411.183 368.1 411.183 366.998C411.183 365.896 412.076 365.003 413.178 365.003C414.28 365.003 415.173 365.896 415.173 366.998Z" fill="#D2AC47"/>
<path d="M421.75 366.998C421.75 368.1 420.857 368.993 419.755 368.993C418.653 368.993 417.76 368.1 417.76 366.998C417.76 365.896 418.653 365.003 419.755 365.003C420.857 365.003 421.75 365.896 421.75 366.998Z" fill="#D2AC47"/>
<path d="M428.328 366.998C428.328 368.1 427.435 368.993 426.333 368.993C425.231 368.993 424.338 368.1 424.338 366.998C424.338 365.896 425.231 365.003 426.333 365.003C427.435 365.003 428.328 365.896 428.328 366.998Z" fill="#D2AC47"/>
<path d="M434.905 366.998C434.905 368.1 434.012 368.993 432.91 368.993C431.808 368.993 430.915 368.1 430.915 366.998C430.915 365.896 431.808 365.003 432.91 365.003C434.012 365.003 434.905 365.896 434.905 366.998Z" fill="#D2AC47"/>
<path d="M441.481 366.998C441.481 368.1 440.588 368.993 439.486 368.993C438.384 368.993 437.491 368.1 437.491 366.998C437.491 365.896 438.384 365.003 439.486 365.003C440.588 365.003 441.481 365.896 441.481 366.998Z" fill="#D2AC47"/>
<path d="M415.173 372.984C415.173 374.086 414.28 374.979 413.178 374.979C412.076 374.979 411.183 374.086 411.183 372.984C411.183 371.882 412.076 370.989 413.178 370.989C414.28 370.989 415.173 371.882 415.173 372.984Z" fill="#D2AC47"/>
<path d="M421.75 372.984C421.75 374.086 420.857 374.979 419.755 374.979C418.653 374.979 417.76 374.086 417.76 372.984C417.76 371.882 418.653 370.989 419.755 370.989C420.857 370.989 421.75 371.882 421.75 372.984Z" fill="#D2AC47"/>
<path d="M428.328 372.984C428.328 374.086 427.435 374.979 426.333 374.979C425.231 374.979 424.338 374.086 424.338 372.984C424.338 371.882 425.231 370.989 426.333 370.989C427.435 370.989 428.328 371.882 428.328 372.984Z" fill="#D2AC47"/>
<path d="M434.905 372.984C434.905 374.086 434.012 374.979 432.91 374.979C431.808 374.979 430.915 374.086 430.915 372.984C430.915 371.882 431.808 370.989 432.91 370.989C434.012 370.989 434.905 371.882 434.905 372.984Z" fill="#D2AC47"/>
<path d="M441.481 372.984C441.481 374.086 440.588 374.979 439.486 374.979C438.384 374.979 437.491 374.086 437.491 372.984C437.491 371.882 438.384 370.989 439.486 370.989C440.588 370.989 441.481 371.882 441.481 372.984Z" fill="#D2AC47"/>
<path d="M415.173 378.97C415.173 380.072 414.28 380.965 413.178 380.965C412.076 380.965 411.183 380.072 411.183 378.97C411.183 377.868 412.076 376.975 413.178 376.975C414.28 376.975 415.173 377.868 415.173 378.97Z" fill="#D2AC47"/>
<path d="M421.75 378.97C421.75 380.072 420.857 380.965 419.755 380.965C418.653 380.965 417.76 380.072 417.76 378.97C417.76 377.868 418.653 376.975 419.755 376.975C420.857 376.974 421.75 377.868 421.75 378.97Z" fill="#D2AC47"/>
<path d="M428.328 378.97C428.328 380.072 427.435 380.965 426.333 380.965C425.231 380.965 424.338 380.072 424.338 378.97C424.338 377.868 425.231 376.975 426.333 376.975C427.435 376.975 428.328 377.868 428.328 378.97Z" fill="#D2AC47"/>
<path d="M434.905 378.97C434.905 380.072 434.012 380.965 432.91 380.965C431.808 380.965 430.915 380.072 430.915 378.97C430.915 377.868 431.808 376.975 432.91 376.975C434.012 376.975 434.905 377.868 434.905 378.97Z" fill="#D2AC47"/>
<path d="M441.481 378.97C441.481 380.072 440.588 380.965 439.486 380.965C438.384 380.965 437.491 380.072 437.491 378.97C437.491 377.868 438.384 376.975 439.486 376.975C440.588 376.974 441.481 377.868 441.481 378.97Z" fill="#D2AC47"/>
<path d="M408.546 365.003H407.397V380.965H408.546V365.003Z" fill="#263238"/>
<path d="M444.579 332.338H341.367V356.174H444.579V332.338Z" fill="#37474F"/>
<path d="M404.462 336.274H345.712V338.286H404.462V336.274Z" fill="#455A64"/>
<path d="M404.462 339.763H345.712V341.775H404.462V339.763Z" fill="#455A64"/>
<path d="M404.462 343.249H345.712V345.261H404.462V343.249Z" fill="#455A64"/>
<path d="M404.462 346.737H345.712V348.749H404.462V346.737Z" fill="#455A64"/>
<path d="M404.462 350.225H345.712V352.237H404.462V350.225Z" fill="#455A64"/>
<path d="M413.178 340.265C414.279 340.265 415.173 339.372 415.173 338.27C415.173 337.169 414.279 336.275 413.178 336.275C412.076 336.275 411.183 337.169 411.183 338.27C411.183 339.372 412.076 340.265 413.178 340.265Z" fill="#D2AC47"/>
<path d="M421.75 338.27C421.75 339.372 420.857 340.265 419.755 340.265C418.653 340.265 417.76 339.372 417.76 338.27C417.76 337.168 418.653 336.275 419.755 336.275C420.857 336.274 421.75 337.168 421.75 338.27Z" fill="#D2AC47"/>
<path d="M426.332 340.265C427.434 340.265 428.327 339.372 428.327 338.27C428.327 337.169 427.434 336.275 426.332 336.275C425.23 336.275 424.337 337.169 424.337 338.27C424.337 339.372 425.23 340.265 426.332 340.265Z" fill="#D2AC47"/>
<path d="M434.905 338.27C434.905 339.372 434.012 340.265 432.91 340.265C431.808 340.265 430.915 339.372 430.915 338.27C430.915 337.168 431.808 336.275 432.91 336.275C434.012 336.275 434.905 337.168 434.905 338.27Z" fill="#D2AC47"/>
<path d="M441.481 338.27C441.481 339.372 440.588 340.265 439.486 340.265C438.384 340.265 437.491 339.372 437.491 338.27C437.491 337.168 438.384 336.275 439.486 336.275C440.588 336.274 441.481 337.168 441.481 338.27Z" fill="#D2AC47"/>
<path d="M415.173 344.256C415.173 345.358 414.28 346.251 413.178 346.251C412.076 346.251 411.183 345.358 411.183 344.256C411.183 343.154 412.076 342.261 413.178 342.261C414.28 342.261 415.173 343.154 415.173 344.256Z" fill="#D2AC47"/>
<path d="M421.75 344.256C421.75 345.358 420.857 346.251 419.755 346.251C418.653 346.251 417.76 345.358 417.76 344.256C417.76 343.154 418.653 342.261 419.755 342.261C420.857 342.261 421.75 343.154 421.75 344.256Z" fill="#D2AC47"/>
<path d="M428.328 344.256C428.328 345.358 427.435 346.251 426.333 346.251C425.231 346.251 424.338 345.358 424.338 344.256C424.338 343.154 425.231 342.261 426.333 342.261C427.435 342.261 428.328 343.154 428.328 344.256Z" fill="#D2AC47"/>
<path d="M434.905 344.256C434.905 345.358 434.012 346.251 432.91 346.251C431.808 346.251 430.915 345.358 430.915 344.256C430.915 343.154 431.808 342.261 432.91 342.261C434.012 342.261 434.905 343.154 434.905 344.256Z" fill="#D2AC47"/>
<path d="M441.481 344.256C441.481 345.358 440.588 346.251 439.486 346.251C438.384 346.251 437.491 345.358 437.491 344.256C437.491 343.154 438.384 342.261 439.486 342.261C440.588 342.261 441.481 343.154 441.481 344.256Z" fill="#D2AC47"/>
<path d="M415.173 350.241C415.173 351.343 414.28 352.236 413.178 352.236C412.076 352.236 411.183 351.343 411.183 350.241C411.183 349.139 412.076 348.246 413.178 348.246C414.28 348.246 415.173 349.139 415.173 350.241Z" fill="#D2AC47"/>
<path d="M421.75 350.241C421.75 351.343 420.857 352.236 419.755 352.236C418.653 352.236 417.76 351.343 417.76 350.241C417.76 349.139 418.653 348.246 419.755 348.246C420.857 348.245 421.75 349.139 421.75 350.241Z" fill="#D2AC47"/>
<path d="M428.328 350.241C428.328 351.343 427.435 352.236 426.333 352.236C425.231 352.236 424.338 351.343 424.338 350.241C424.338 349.139 425.231 348.246 426.333 348.246C427.435 348.246 428.328 349.139 428.328 350.241Z" fill="#D2AC47"/>
<path d="M434.905 350.241C434.905 351.343 434.012 352.236 432.91 352.236C431.808 352.236 430.915 351.343 430.915 350.241C430.915 349.139 431.808 348.246 432.91 348.246C434.012 348.246 434.905 349.139 434.905 350.241Z" fill="#D2AC47"/>
<path d="M441.481 350.241C441.481 351.343 440.588 352.236 439.486 352.236C438.384 352.236 437.491 351.343 437.491 350.241C437.491 349.139 438.384 348.246 439.486 348.246C440.588 348.245 441.481 349.139 441.481 350.241Z" fill="#D2AC47"/>
<path d="M408.546 336.274H407.397V352.236H408.546V336.274Z" fill="#263238"/>
<path d="M444.579 303.61H341.367V327.446H444.579V303.61Z" fill="#37474F"/>
<path d="M404.462 307.549H345.712V309.561H404.462V307.549Z" fill="#455A64"/>
<path d="M404.462 311.036H345.712V313.048H404.462V311.036Z" fill="#455A64"/>
<path d="M404.462 314.523H345.712V316.535H404.462V314.523Z" fill="#455A64"/>
<path d="M404.462 318.011H345.712V320.023H404.462V318.011Z" fill="#455A64"/>
<path d="M404.462 321.498H345.712V323.51H404.462V321.498Z" fill="#455A64"/>
<path d="M415.173 309.544C415.173 310.646 414.28 311.539 413.178 311.539C412.076 311.539 411.183 310.646 411.183 309.544C411.183 308.442 412.076 307.549 413.178 307.549C414.28 307.549 415.173 308.442 415.173 309.544Z" fill="#D2AC47"/>
<path d="M421.75 309.544C421.75 310.646 420.857 311.539 419.755 311.539C418.653 311.539 417.76 310.646 417.76 309.544C417.76 308.442 418.653 307.549 419.755 307.549C420.857 307.549 421.75 308.442 421.75 309.544Z" fill="#D2AC47"/>
<path d="M428.328 309.544C428.328 310.646 427.435 311.539 426.333 311.539C425.231 311.539 424.338 310.646 424.338 309.544C424.338 308.442 425.231 307.549 426.333 307.549C427.435 307.549 428.328 308.442 428.328 309.544Z" fill="#D2AC47"/>
<path d="M434.905 309.544C434.905 310.646 434.012 311.539 432.91 311.539C431.808 311.539 430.915 310.646 430.915 309.544C430.915 308.442 431.808 307.549 432.91 307.549C434.012 307.549 434.905 308.442 434.905 309.544Z" fill="#D2AC47"/>
<path d="M441.481 309.544C441.481 310.646 440.588 311.539 439.486 311.539C438.384 311.539 437.491 310.646 437.491 309.544C437.491 308.442 438.384 307.549 439.486 307.549C440.588 307.549 441.481 308.442 441.481 309.544Z" fill="#D2AC47"/>
<path d="M413.178 317.524C414.279 317.524 415.173 316.631 415.173 315.529C415.173 314.427 414.279 313.534 413.178 313.534C412.076 313.534 411.183 314.427 411.183 315.529C411.183 316.631 412.076 317.524 413.178 317.524Z" fill="#D2AC47"/>
<path d="M421.75 315.529C421.75 316.631 420.857 317.524 419.755 317.524C418.653 317.524 417.76 316.631 417.76 315.529C417.76 314.427 418.653 313.534 419.755 313.534C420.857 313.534 421.75 314.428 421.75 315.529Z" fill="#D2AC47"/>
<path d="M426.332 317.524C427.434 317.524 428.327 316.631 428.327 315.529C428.327 314.427 427.434 313.534 426.332 313.534C425.23 313.534 424.337 314.427 424.337 315.529C424.337 316.631 425.23 317.524 426.332 317.524Z" fill="#D2AC47"/>
<path d="M434.905 315.529C434.905 316.631 434.012 317.524 432.91 317.524C431.808 317.524 430.915 316.631 430.915 315.529C430.915 314.427 431.808 313.534 432.91 313.534C434.012 313.534 434.905 314.428 434.905 315.529Z" fill="#D2AC47"/>
<path d="M441.481 315.529C441.481 316.631 440.588 317.524 439.486 317.524C438.384 317.524 437.491 316.631 437.491 315.529C437.491 314.427 438.384 313.534 439.486 313.534C440.588 313.534 441.481 314.428 441.481 315.529Z" fill="#D2AC47"/>
<path d="M413.178 323.51C414.279 323.51 415.173 322.616 415.173 321.515C415.173 320.413 414.279 319.52 413.178 319.52C412.076 319.52 411.183 320.413 411.183 321.515C411.183 322.616 412.076 323.51 413.178 323.51Z" fill="#D2AC47"/>
<path d="M421.75 321.515C421.75 322.617 420.857 323.51 419.755 323.51C418.653 323.51 417.76 322.617 417.76 321.515C417.76 320.413 418.653 319.52 419.755 319.52C420.857 319.52 421.75 320.413 421.75 321.515Z" fill="#D2AC47"/>
<path d="M426.332 323.51C427.434 323.51 428.327 322.616 428.327 321.515C428.327 320.413 427.434 319.52 426.332 319.52C425.23 319.52 424.337 320.413 424.337 321.515C424.337 322.616 425.23 323.51 426.332 323.51Z" fill="#D2AC47"/>
<path d="M434.905 321.515C434.905 322.617 434.012 323.51 432.91 323.51C431.808 323.51 430.915 322.617 430.915 321.515C430.915 320.413 431.808 319.52 432.91 319.52C434.012 319.52 434.905 320.413 434.905 321.515Z" fill="#D2AC47"/>
<path d="M441.481 321.515C441.481 322.617 440.588 323.51 439.486 323.51C438.384 323.51 437.491 322.617 437.491 321.515C437.491 320.413 438.384 319.52 439.486 319.52C440.588 319.52 441.481 320.413 441.481 321.515Z" fill="#D2AC47"/>
<path d="M408.546 307.549H407.397V323.511H408.546V307.549Z" fill="#263238"/>
<path d="M444.579 274.884H341.367V298.72H444.579V274.884Z" fill="#37474F"/>
<path d="M404.462 278.82H345.712V280.832H404.462V278.82Z" fill="#455A64"/>
<path d="M404.462 282.308H345.712V284.32H404.462V282.308Z" fill="#455A64"/>
<path d="M404.462 285.795H345.712V287.807H404.462V285.795Z" fill="#455A64"/>
<path d="M404.462 289.282H345.712V291.294H404.462V289.282Z" fill="#455A64"/>
<path d="M404.462 292.771H345.712V294.783H404.462V292.771Z" fill="#455A64"/>
<path d="M413.178 282.81C414.279 282.81 415.173 281.917 415.173 280.815C415.173 279.713 414.279 278.82 413.178 278.82C412.076 278.82 411.183 279.713 411.183 280.815C411.183 281.917 412.076 282.81 413.178 282.81Z" fill="#D2AC47"/>
<path d="M421.75 280.815C421.75 281.917 420.857 282.81 419.755 282.81C418.653 282.81 417.76 281.917 417.76 280.815C417.76 279.713 418.653 278.82 419.755 278.82C420.857 278.82 421.75 279.713 421.75 280.815Z" fill="#D2AC47"/>
<path d="M426.332 282.81C427.434 282.81 428.327 281.917 428.327 280.815C428.327 279.713 427.434 278.82 426.332 278.82C425.23 278.82 424.337 279.713 424.337 280.815C424.337 281.917 425.23 282.81 426.332 282.81Z" fill="#D2AC47"/>
<path d="M434.905 280.815C434.905 281.917 434.012 282.81 432.91 282.81C431.808 282.81 430.915 281.917 430.915 280.815C430.915 279.713 431.808 278.82 432.91 278.82C434.012 278.82 434.905 279.713 434.905 280.815Z" fill="#D2AC47"/>
<path d="M441.481 280.815C441.481 281.917 440.588 282.81 439.486 282.81C438.384 282.81 437.491 281.917 437.491 280.815C437.491 279.713 438.384 278.82 439.486 278.82C440.588 278.82 441.481 279.713 441.481 280.815Z" fill="#D2AC47"/>
<path d="M413.178 288.797C414.279 288.797 415.173 287.903 415.173 286.802C415.173 285.7 414.279 284.807 413.178 284.807C412.076 284.807 411.183 285.7 411.183 286.802C411.183 287.903 412.076 288.797 413.178 288.797Z" fill="#D2AC47"/>
<path d="M421.75 286.802C421.75 287.904 420.857 288.797 419.755 288.797C418.653 288.797 417.76 287.904 417.76 286.802C417.76 285.7 418.653 284.807 419.755 284.807C420.857 284.806 421.75 285.7 421.75 286.802Z" fill="#D2AC47"/>
<path d="M426.332 288.797C427.434 288.797 428.327 287.903 428.327 286.802C428.327 285.7 427.434 284.807 426.332 284.807C425.23 284.807 424.337 285.7 424.337 286.802C424.337 287.903 425.23 288.797 426.332 288.797Z" fill="#D2AC47"/>
<path d="M434.905 286.802C434.905 287.904 434.012 288.797 432.91 288.797C431.808 288.797 430.915 287.904 430.915 286.802C430.915 285.7 431.808 284.807 432.91 284.807C434.012 284.807 434.905 285.7 434.905 286.802Z" fill="#D2AC47"/>
<path d="M441.481 286.802C441.481 287.904 440.588 288.797 439.486 288.797C438.384 288.797 437.491 287.904 437.491 286.802C437.491 285.7 438.384 284.807 439.486 284.807C440.588 284.806 441.481 285.7 441.481 286.802Z" fill="#D2AC47"/>
<path d="M415.173 292.786C415.173 293.888 414.28 294.781 413.178 294.781C412.076 294.781 411.183 293.888 411.183 292.786C411.183 291.684 412.076 290.791 413.178 290.791C414.28 290.791 415.173 291.684 415.173 292.786Z" fill="#D2AC47"/>
<path d="M421.75 292.786C421.75 293.888 420.857 294.781 419.755 294.781C418.653 294.781 417.76 293.888 417.76 292.786C417.76 291.684 418.653 290.791 419.755 290.791C420.857 290.791 421.75 291.684 421.75 292.786Z" fill="#D2AC47"/>
<path d="M428.328 292.786C428.328 293.888 427.435 294.781 426.333 294.781C425.231 294.781 424.338 293.888 424.338 292.786C424.338 291.684 425.231 290.791 426.333 290.791C427.435 290.791 428.328 291.684 428.328 292.786Z" fill="#D2AC47"/>
<path d="M434.905 292.786C434.905 293.888 434.012 294.781 432.91 294.781C431.808 294.781 430.915 293.888 430.915 292.786C430.915 291.684 431.808 290.791 432.91 290.791C434.012 290.791 434.905 291.684 434.905 292.786Z" fill="#D2AC47"/>
<path d="M441.481 292.786C441.481 293.888 440.588 294.781 439.486 294.781C438.384 294.781 437.491 293.888 437.491 292.786C437.491 291.684 438.384 290.791 439.486 290.791C440.588 290.791 441.481 291.684 441.481 292.786Z" fill="#D2AC47"/>
<path d="M408.546 278.82H407.397V294.782H408.546V278.82Z" fill="#263238"/>
<path d="M444.579 246.155H341.367V269.991H444.579V246.155Z" fill="#37474F"/>
<path d="M404.462 250.092H345.712V252.104H404.462V250.092Z" fill="#455A64"/>
<path d="M404.462 253.579H345.712V255.591H404.462V253.579Z" fill="#455A64"/>
<path d="M404.462 257.066H345.712V259.078H404.462V257.066Z" fill="#455A64"/>
<path d="M404.462 260.554H345.712V262.566H404.462V260.554Z" fill="#455A64"/>
<path d="M404.462 264.042H345.712V266.054H404.462V264.042Z" fill="#455A64"/>
<path d="M415.173 252.087C415.173 253.189 414.28 254.082 413.178 254.082C412.076 254.082 411.183 253.189 411.183 252.087C411.183 250.985 412.076 250.092 413.178 250.092C414.28 250.092 415.173 250.985 415.173 252.087Z" fill="#D2AC47"/>
<path d="M421.75 252.087C421.75 253.189 420.857 254.082 419.755 254.082C418.653 254.082 417.76 253.189 417.76 252.087C417.76 250.985 418.653 250.092 419.755 250.092C420.857 250.092 421.75 250.985 421.75 252.087Z" fill="#D2AC47"/>
<path d="M428.328 252.087C428.328 253.189 427.435 254.082 426.333 254.082C425.231 254.082 424.338 253.189 424.338 252.087C424.338 250.985 425.231 250.092 426.333 250.092C427.435 250.092 428.328 250.985 428.328 252.087Z" fill="#D2AC47"/>
<path d="M434.905 252.087C434.905 253.189 434.012 254.082 432.91 254.082C431.808 254.082 430.915 253.189 430.915 252.087C430.915 250.985 431.808 250.092 432.91 250.092C434.012 250.092 434.905 250.985 434.905 252.087Z" fill="#D2AC47"/>
<path d="M441.481 252.087C441.481 253.189 440.588 254.082 439.486 254.082C438.384 254.082 437.491 253.189 437.491 252.087C437.491 250.985 438.384 250.092 439.486 250.092C440.588 250.092 441.481 250.985 441.481 252.087Z" fill="#D2AC47"/>
<path d="M415.173 258.073C415.173 259.175 414.28 260.068 413.178 260.068C412.076 260.068 411.183 259.175 411.183 258.073C411.183 256.971 412.076 256.078 413.178 256.078C414.28 256.078 415.173 256.971 415.173 258.073Z" fill="#D2AC47"/>
<path d="M421.75 258.073C421.75 259.175 420.857 260.068 419.755 260.068C418.653 260.068 417.76 259.175 417.76 258.073C417.76 256.971 418.653 256.078 419.755 256.078C420.857 256.078 421.75 256.971 421.75 258.073Z" fill="#D2AC47"/>
<path d="M428.328 258.073C428.328 259.175 427.435 260.068 426.333 260.068C425.231 260.068 424.338 259.175 424.338 258.073C424.338 256.971 425.231 256.078 426.333 256.078C427.435 256.078 428.328 256.971 428.328 258.073Z" fill="#D2AC47"/>
<path d="M434.905 258.073C434.905 259.175 434.012 260.068 432.91 260.068C431.808 260.068 430.915 259.175 430.915 258.073C430.915 256.971 431.808 256.078 432.91 256.078C434.012 256.078 434.905 256.971 434.905 258.073Z" fill="#D2AC47"/>
<path d="M441.481 258.073C441.481 259.175 440.588 260.068 439.486 260.068C438.384 260.068 437.491 259.175 437.491 258.073C437.491 256.971 438.384 256.078 439.486 256.078C440.588 256.078 441.481 256.971 441.481 258.073Z" fill="#D2AC47"/>
<path d="M415.173 264.058C415.173 265.16 414.28 266.053 413.178 266.053C412.076 266.053 411.183 265.16 411.183 264.058C411.183 262.956 412.076 262.062 413.178 262.062C414.28 262.062 415.173 262.957 415.173 264.058Z" fill="#D2AC47"/>
<path d="M421.75 264.058C421.75 265.16 420.857 266.053 419.755 266.053C418.653 266.053 417.76 265.16 417.76 264.058C417.76 262.956 418.653 262.062 419.755 262.062C420.857 262.062 421.75 262.957 421.75 264.058Z" fill="#D2AC47"/>
<path d="M428.328 264.058C428.328 265.16 427.435 266.053 426.333 266.053C425.231 266.053 424.338 265.16 424.338 264.058C424.338 262.956 425.231 262.062 426.333 262.062C427.435 262.062 428.328 262.957 428.328 264.058Z" fill="#D2AC47"/>
<path d="M434.905 264.058C434.905 265.16 434.012 266.053 432.91 266.053C431.808 266.053 430.915 265.16 430.915 264.058C430.915 262.956 431.808 262.062 432.91 262.062C434.012 262.062 434.905 262.957 434.905 264.058Z" fill="#D2AC47"/>
<path d="M441.481 264.058C441.481 265.16 440.588 266.053 439.486 266.053C438.384 266.053 437.491 265.16 437.491 264.058C437.491 262.956 438.384 262.062 439.486 262.062C440.588 262.062 441.481 262.957 441.481 264.058Z" fill="#D2AC47"/>
<path d="M408.546 250.092H407.397V266.054H408.546V250.092Z" fill="#263238"/>
<path d="M444.579 217.428H341.367V241.264H444.579V217.428Z" fill="#37474F"/>
<path d="M404.462 221.364H345.712V223.376H404.462V221.364Z" fill="#455A64"/>
<path d="M404.462 224.853H345.712V226.865H404.462V224.853Z" fill="#455A64"/>
<path d="M404.462 228.339H345.712V230.351H404.462V228.339Z" fill="#455A64"/>
<path d="M404.462 231.827H345.712V233.839H404.462V231.827Z" fill="#455A64"/>
<path d="M404.462 235.314H345.712V237.326H404.462V235.314Z" fill="#455A64"/>
<path d="M415.173 223.359C415.173 224.461 414.28 225.354 413.178 225.354C412.076 225.354 411.183 224.461 411.183 223.359C411.183 222.257 412.076 221.364 413.178 221.364C414.28 221.364 415.173 222.258 415.173 223.359Z" fill="#D2AC47"/>
<path d="M421.75 223.359C421.75 224.461 420.857 225.354 419.755 225.354C418.653 225.354 417.76 224.461 417.76 223.359C417.76 222.257 418.653 221.364 419.755 221.364C420.857 221.364 421.75 222.258 421.75 223.359Z" fill="#D2AC47"/>
<path d="M428.328 223.359C428.328 224.461 427.435 225.354 426.333 225.354C425.231 225.354 424.338 224.461 424.338 223.359C424.338 222.257 425.231 221.364 426.333 221.364C427.435 221.364 428.328 222.258 428.328 223.359Z" fill="#D2AC47"/>
<path d="M434.905 223.359C434.905 224.461 434.012 225.354 432.91 225.354C431.808 225.354 430.915 224.461 430.915 223.359C430.915 222.257 431.808 221.364 432.91 221.364C434.012 221.364 434.905 222.258 434.905 223.359Z" fill="#D2AC47"/>
<path d="M441.481 223.359C441.481 224.461 440.588 225.354 439.486 225.354C438.384 225.354 437.491 224.461 437.491 223.359C437.491 222.257 438.384 221.364 439.486 221.364C440.588 221.364 441.481 222.258 441.481 223.359Z" fill="#D2AC47"/>
<path d="M415.173 229.346C415.173 230.448 414.28 231.341 413.178 231.341C412.076 231.341 411.183 230.448 411.183 229.346C411.183 228.244 412.076 227.351 413.178 227.351C414.28 227.351 415.173 228.244 415.173 229.346Z" fill="#D2AC47"/>
<path d="M421.75 229.346C421.75 230.448 420.857 231.341 419.755 231.341C418.653 231.341 417.76 230.448 417.76 229.346C417.76 228.244 418.653 227.351 419.755 227.351C420.857 227.351 421.75 228.244 421.75 229.346Z" fill="#D2AC47"/>
<path d="M428.328 229.346C428.328 230.448 427.435 231.341 426.333 231.341C425.231 231.341 424.338 230.448 424.338 229.346C424.338 228.244 425.231 227.351 426.333 227.351C427.435 227.351 428.328 228.244 428.328 229.346Z" fill="#D2AC47"/>
<path d="M434.905 229.346C434.905 230.448 434.012 231.341 432.91 231.341C431.808 231.341 430.915 230.448 430.915 229.346C430.915 228.244 431.808 227.351 432.91 227.351C434.012 227.351 434.905 228.244 434.905 229.346Z" fill="#D2AC47"/>
<path d="M441.481 229.346C441.481 230.448 440.588 231.341 439.486 231.341C438.384 231.341 437.491 230.448 437.491 229.346C437.491 228.244 438.384 227.351 439.486 227.351C440.588 227.351 441.481 228.244 441.481 229.346Z" fill="#D2AC47"/>
<path d="M415.173 235.331C415.173 236.433 414.28 237.326 413.178 237.326C412.076 237.326 411.183 236.433 411.183 235.331C411.183 234.229 412.076 233.336 413.178 233.336C414.28 233.336 415.173 234.229 415.173 235.331Z" fill="#D2AC47"/>
<path d="M421.75 235.331C421.75 236.433 420.857 237.326 419.755 237.326C418.653 237.326 417.76 236.433 417.76 235.331C417.76 234.229 418.653 233.336 419.755 233.336C420.857 233.335 421.75 234.229 421.75 235.331Z" fill="#D2AC47"/>
<path d="M428.328 235.331C428.328 236.433 427.435 237.326 426.333 237.326C425.231 237.326 424.338 236.433 424.338 235.331C424.338 234.229 425.231 233.336 426.333 233.336C427.435 233.336 428.328 234.229 428.328 235.331Z" fill="#D2AC47"/>
<path d="M434.905 235.331C434.905 236.433 434.012 237.326 432.91 237.326C431.808 237.326 430.915 236.433 430.915 235.331C430.915 234.229 431.808 233.336 432.91 233.336C434.012 233.336 434.905 234.229 434.905 235.331Z" fill="#D2AC47"/>
<path d="M441.481 235.331C441.481 236.433 440.588 237.326 439.486 237.326C438.384 237.326 437.491 236.433 437.491 235.331C437.491 234.229 438.384 233.336 439.486 233.336C440.588 233.335 441.481 234.229 441.481 235.331Z" fill="#D2AC47"/>
<path d="M408.546 221.364H407.397V237.326H408.546V221.364Z" fill="#263238"/>
<path d="M444.579 188.699H341.367V212.535H444.579V188.699Z" fill="#37474F"/>
<path d="M404.462 192.637H345.712V194.649H404.462V192.637Z" fill="#455A64"/>
<path d="M404.462 196.124H345.712V198.136H404.462V196.124Z" fill="#455A64"/>
<path d="M404.462 199.61H345.712V201.622H404.462V199.61Z" fill="#455A64"/>
<path d="M404.462 203.099H345.712V205.111H404.462V203.099Z" fill="#455A64"/>
<path d="M404.462 206.586H345.712V208.598H404.462V206.586Z" fill="#455A64"/>
<path d="M415.173 194.632C415.173 195.734 414.28 196.627 413.178 196.627C412.076 196.627 411.183 195.734 411.183 194.632C411.183 193.53 412.076 192.637 413.178 192.637C414.28 192.637 415.173 193.53 415.173 194.632Z" fill="#D2AC47"/>
<path d="M421.75 194.632C421.75 195.734 420.857 196.627 419.755 196.627C418.653 196.627 417.76 195.734 417.76 194.632C417.76 193.53 418.653 192.637 419.755 192.637C420.857 192.637 421.75 193.53 421.75 194.632Z" fill="#D2AC47"/>
<path d="M428.328 194.632C428.328 195.734 427.435 196.627 426.333 196.627C425.231 196.627 424.338 195.734 424.338 194.632C424.338 193.53 425.231 192.637 426.333 192.637C427.435 192.637 428.328 193.53 428.328 194.632Z" fill="#D2AC47"/>
<path d="M434.905 194.632C434.905 195.734 434.012 196.627 432.91 196.627C431.808 196.627 430.915 195.734 430.915 194.632C430.915 193.53 431.808 192.637 432.91 192.637C434.012 192.637 434.905 193.53 434.905 194.632Z" fill="#D2AC47"/>
<path d="M441.481 194.632C441.481 195.734 440.588 196.627 439.486 196.627C438.384 196.627 437.491 195.734 437.491 194.632C437.491 193.53 438.384 192.637 439.486 192.637C440.588 192.637 441.481 193.53 441.481 194.632Z" fill="#D2AC47"/>
<path d="M413.178 202.612C414.279 202.612 415.173 201.719 415.173 200.617C415.173 199.515 414.279 198.622 413.178 198.622C412.076 198.622 411.183 199.515 411.183 200.617C411.183 201.719 412.076 202.612 413.178 202.612Z" fill="#D2AC47"/>
<path d="M421.75 200.617C421.75 201.719 420.857 202.612 419.755 202.612C418.653 202.612 417.76 201.719 417.76 200.617C417.76 199.515 418.653 198.622 419.755 198.622C420.857 198.622 421.75 199.515 421.75 200.617Z" fill="#D2AC47"/>
<path d="M426.332 202.612C427.434 202.612 428.327 201.719 428.327 200.617C428.327 199.515 427.434 198.622 426.332 198.622C425.23 198.622 424.337 199.515 424.337 200.617C424.337 201.719 425.23 202.612 426.332 202.612Z" fill="#D2AC47"/>
<path d="M434.905 200.617C434.905 201.719 434.012 202.612 432.91 202.612C431.808 202.612 430.915 201.719 430.915 200.617C430.915 199.515 431.808 198.622 432.91 198.622C434.012 198.622 434.905 199.515 434.905 200.617Z" fill="#D2AC47"/>
<path d="M441.481 200.617C441.481 201.719 440.588 202.612 439.486 202.612C438.384 202.612 437.491 201.719 437.491 200.617C437.491 199.515 438.384 198.622 439.486 198.622C440.588 198.622 441.481 199.515 441.481 200.617Z" fill="#D2AC47"/>
<path d="M415.173 206.602C415.173 207.704 414.28 208.597 413.178 208.597C412.076 208.597 411.183 207.704 411.183 206.602C411.183 205.5 412.076 204.607 413.178 204.607C414.28 204.607 415.173 205.5 415.173 206.602Z" fill="#D2AC47"/>
<path d="M421.75 206.602C421.75 207.704 420.857 208.597 419.755 208.597C418.653 208.597 417.76 207.704 417.76 206.602C417.76 205.5 418.653 204.607 419.755 204.607C420.857 204.607 421.75 205.5 421.75 206.602Z" fill="#D2AC47"/>
<path d="M428.328 206.602C428.328 207.704 427.435 208.597 426.333 208.597C425.231 208.597 424.338 207.704 424.338 206.602C424.338 205.5 425.231 204.607 426.333 204.607C427.435 204.607 428.328 205.5 428.328 206.602Z" fill="#D2AC47"/>
<path d="M434.905 206.602C434.905 207.704 434.012 208.597 432.91 208.597C431.808 208.597 430.915 207.704 430.915 206.602C430.915 205.5 431.808 204.607 432.91 204.607C434.012 204.607 434.905 205.5 434.905 206.602Z" fill="#D2AC47"/>
<path d="M441.481 206.602C441.481 207.704 440.588 208.597 439.486 208.597C438.384 208.597 437.491 207.704 437.491 206.602C437.491 205.5 438.384 204.607 439.486 204.607C440.588 204.607 441.481 205.5 441.481 206.602Z" fill="#D2AC47"/>
<path d="M408.546 192.637H407.397V208.599H408.546V192.637Z" fill="#263238"/>
<path d="M427.741 168.861H291.69V176.42H427.741V168.861Z" fill="#37474F"/>
<path d="M293.055 384.068H277.862V399.261H293.055V384.068Z" fill="#263238"/>
<path d="M63.0029 226.704V212.312H65.2729V226.704H63.0029Z" fill="#263238"/>
<path d="M70.7866 216.57V226.704H68.5166V212.312H70.2996L78.5296 222.69V212.332H80.8196V226.704H78.9346L70.7866 216.57Z" fill="#263238"/>
<path d="M94.6241 214.32H89.8401V226.704H87.5501V214.32H82.7461V212.312H94.6241V214.32Z" fill="#263238"/>
<path d="M106.421 224.697V226.704H96.5498V212.312H106.239V214.32H98.8198V218.413H105.245V220.298H98.8198V224.697L106.421 224.697Z" fill="#263238"/>
<path d="M108.772 226.704V212.312H115.035C115.684 212.312 116.282 212.447 116.829 212.717C117.377 212.987 117.846 213.342 118.238 213.781C118.63 214.22 118.937 214.72 119.16 215.281C119.383 215.842 119.495 216.413 119.495 216.994C119.495 217.48 119.427 217.948 119.292 218.393C119.157 218.839 118.968 219.252 118.724 219.63C118.481 220.008 118.183 220.336 117.832 220.613C117.481 220.89 117.095 221.096 116.677 221.23L120.062 226.703H117.488L114.366 221.697H111.042V226.703H108.772V226.704ZM111.042 219.69H115.015C115.339 219.69 115.633 219.619 115.897 219.477C116.161 219.335 116.387 219.14 116.576 218.889C116.765 218.639 116.914 218.353 117.022 218.029C117.13 217.705 117.184 217.359 117.184 216.994C117.184 216.629 117.12 216.284 116.991 215.96C116.863 215.636 116.694 215.352 116.485 215.109C116.275 214.866 116.032 214.674 115.755 214.533C115.478 214.391 115.191 214.32 114.894 214.32H111.043L111.042 219.69Z" fill="#263238"/>
<path d="M124.441 216.57V226.704H122.171V212.312H123.955L132.185 222.69V212.332H134.475V226.704H132.59L124.441 216.57Z" fill="#263238"/>
<path d="M141.954 212.312H143.941L149.616 226.704H147.224L145.704 222.792H140.15L138.65 226.704H136.238L141.954 212.312ZM145.258 221.109L142.947 214.927L140.555 221.109H145.258Z" fill="#263238"/>
<path d="M151.4 226.704V212.312H153.67V224.697H161.393V226.704H151.4Z" fill="#263238"/>
<path d="M176.21 215.698C176.075 215.549 175.878 215.391 175.621 215.221C175.364 215.052 175.064 214.894 174.719 214.744C174.374 214.596 173.997 214.474 173.585 214.379C173.173 214.284 172.75 214.237 172.318 214.237C171.358 214.237 170.653 214.413 170.201 214.764C169.748 215.116 169.521 215.602 169.521 216.224C169.521 216.576 169.592 216.863 169.734 217.085C169.876 217.308 170.096 217.504 170.393 217.673C170.69 217.842 171.062 217.99 171.508 218.119C171.954 218.248 172.475 218.386 173.07 218.534C173.8 218.71 174.458 218.906 175.046 219.122C175.634 219.338 176.13 219.602 176.535 219.912C176.94 220.223 177.256 220.605 177.479 221.058C177.702 221.511 177.812 222.061 177.812 222.71C177.812 223.44 177.673 224.068 177.397 224.595C177.12 225.122 176.741 225.551 176.262 225.882C175.782 226.213 175.225 226.456 174.59 226.612C173.955 226.767 173.274 226.845 172.544 226.845C171.449 226.845 170.391 226.68 169.371 226.348C168.35 226.017 167.428 225.534 166.604 224.899L167.639 222.953C167.814 223.129 168.067 223.325 168.398 223.541C168.729 223.757 169.114 223.957 169.553 224.139C169.992 224.321 170.468 224.477 170.982 224.605C171.495 224.733 172.029 224.798 172.583 224.798C173.475 224.798 174.164 224.643 174.651 224.331C175.138 224.021 175.382 223.561 175.382 222.953C175.382 222.588 175.289 222.284 175.107 222.041C174.925 221.798 174.664 221.585 174.327 221.402C173.989 221.22 173.577 221.054 173.09 220.905C172.604 220.756 172.049 220.601 171.428 220.439C170.711 220.25 170.086 220.05 169.553 219.841C169.019 219.631 168.576 219.378 168.225 219.081C167.874 218.783 167.607 218.436 167.425 218.037C167.242 217.639 167.151 217.155 167.151 216.588C167.151 215.885 167.287 215.26 167.557 214.713C167.827 214.166 168.194 213.707 168.66 213.335C169.127 212.964 169.678 212.683 170.312 212.494C170.947 212.305 171.636 212.21 172.38 212.21C173.353 212.21 174.251 212.366 175.076 212.676C175.9 212.987 176.623 213.372 177.245 213.832L176.21 215.698Z" fill="#263238"/>
<path d="M189.953 224.697V226.704H180.082V212.312H189.771V214.32H182.352V218.413H188.778V220.298H182.352V224.697L189.953 224.697Z" fill="#263238"/>
<path d="M192.304 226.704V212.312H198.567C199.216 212.312 199.814 212.447 200.361 212.717C200.909 212.987 201.378 213.342 201.77 213.781C202.162 214.22 202.469 214.72 202.692 215.281C202.915 215.842 203.027 216.413 203.027 216.994C203.027 217.48 202.959 217.948 202.824 218.393C202.689 218.839 202.5 219.252 202.256 219.63C202.013 220.008 201.715 220.336 201.364 220.613C201.013 220.89 200.627 221.096 200.209 221.23L203.594 226.703H201.02L197.898 221.697H194.574V226.703H192.304V226.704ZM194.574 219.69H198.547C198.871 219.69 199.165 219.619 199.429 219.477C199.693 219.335 199.919 219.14 200.108 218.889C200.297 218.639 200.446 218.353 200.554 218.029C200.662 217.705 200.716 217.359 200.716 216.994C200.716 216.629 200.652 216.284 200.523 215.96C200.395 215.636 200.225 215.352 200.016 215.109C199.806 214.866 199.563 214.674 199.286 214.533C199.009 214.391 198.721 214.32 198.424 214.32H194.573V219.69H194.574Z" fill="#263238"/>
<path d="M206.27 212.312L210.608 223.845L214.925 212.312H217.337L211.58 226.704H209.634L203.857 212.312H206.27Z" fill="#263238"/>
<path d="M228.972 224.697V226.704H219.101V212.312H228.79V214.32H221.371V218.413H227.796V220.298H221.371V224.697L228.972 224.697Z" fill="#263238"/>
<path d="M231.323 226.704V212.312H237.586C238.235 212.312 238.833 212.447 239.38 212.717C239.928 212.987 240.397 213.342 240.789 213.781C241.18 214.22 241.488 214.72 241.711 215.281C241.934 215.842 242.046 216.413 242.046 216.994C242.046 217.48 241.978 217.948 241.843 218.393C241.708 218.839 241.519 219.252 241.276 219.63C241.032 220.008 240.735 220.336 240.384 220.613C240.033 220.89 239.647 221.096 239.229 221.23L242.614 226.703H240.04L236.918 221.697H233.594V226.703H231.323V226.704ZM233.593 219.69H237.566C237.89 219.69 238.184 219.619 238.448 219.477C238.712 219.335 238.938 219.14 239.127 218.889C239.316 218.639 239.465 218.353 239.573 218.029C239.681 217.705 239.735 217.359 239.735 216.994C239.735 216.629 239.671 216.284 239.542 215.96C239.414 215.636 239.244 215.352 239.035 215.109C238.825 214.866 238.582 214.674 238.305 214.533C238.028 214.391 237.741 214.32 237.443 214.32H233.592V219.69H233.593Z" fill="#263238"/>
<path d="M132.078 245.89V248.809H121.963V234.418H131.895V237.337H125.287V240.135H130.962V242.831H125.287V245.892H132.078V245.89Z" fill="#263238"/>
<path d="M134.104 248.809V234.418H140.59C141.265 234.418 141.891 234.56 142.465 234.843C143.039 235.127 143.535 235.499 143.955 235.958C144.373 236.417 144.701 236.938 144.938 237.519C145.174 238.1 145.294 238.688 145.294 239.282C145.294 239.728 145.24 240.157 145.132 240.569C145.024 240.981 144.867 241.369 144.665 241.734C144.462 242.099 144.215 242.427 143.925 242.717C143.635 243.008 143.307 243.254 142.942 243.457L146.104 248.809H142.354L139.598 244.167H137.429V248.809H134.104ZM137.429 241.269H140.469C140.861 241.269 141.199 241.083 141.482 240.711C141.766 240.339 141.908 239.863 141.908 239.282C141.908 238.688 141.747 238.215 141.423 237.863C141.099 237.512 140.746 237.336 140.368 237.336H137.429V241.269Z" fill="#263238"/>
<path d="M147.686 248.809V234.418H154.172C154.848 234.418 155.473 234.56 156.047 234.843C156.621 235.127 157.118 235.499 157.537 235.958C157.955 236.417 158.283 236.938 158.52 237.519C158.756 238.1 158.875 238.688 158.875 239.282C158.875 239.728 158.821 240.157 158.713 240.569C158.605 240.981 158.449 241.369 158.247 241.734C158.044 242.099 157.797 242.427 157.507 242.717C157.217 243.008 156.889 243.254 156.524 243.457L159.686 248.809H155.936L153.18 244.167H151.011V248.809H147.686ZM151.011 241.269H154.051C154.443 241.269 154.781 241.083 155.064 240.711C155.348 240.339 155.49 239.863 155.49 239.282C155.49 238.688 155.328 238.215 155.003 237.863C154.679 237.512 154.327 237.336 153.949 237.336H151.01V241.269H151.011Z" fill="#263238"/>
<path d="M167.571 248.93C166.503 248.93 165.53 248.721 164.652 248.302C163.774 247.884 163.023 247.333 162.402 246.65C161.78 245.968 161.297 245.187 160.952 244.309C160.608 243.43 160.435 242.525 160.435 241.593C160.435 240.647 160.614 239.735 160.972 238.857C161.33 237.979 161.83 237.205 162.472 236.536C163.114 235.867 163.874 235.333 164.753 234.935C165.631 234.537 166.591 234.337 167.631 234.337C168.698 234.337 169.671 234.546 170.55 234.965C171.428 235.384 172.178 235.938 172.8 236.627C173.421 237.316 173.901 238.1 174.239 238.978C174.577 239.856 174.746 240.748 174.746 241.654C174.746 242.6 174.566 243.512 174.209 244.39C173.851 245.268 173.354 246.042 172.719 246.711C172.083 247.38 171.327 247.917 170.449 248.322C169.571 248.728 168.611 248.93 167.571 248.93ZM163.821 241.633C163.821 242.187 163.902 242.724 164.064 243.245C164.226 243.765 164.466 244.228 164.784 244.633C165.101 245.038 165.496 245.363 165.97 245.606C166.443 245.849 166.983 245.971 167.591 245.971C168.226 245.971 168.78 245.843 169.253 245.586C169.726 245.329 170.118 244.995 170.428 244.583C170.739 244.171 170.972 243.705 171.127 243.184C171.282 242.664 171.36 242.133 171.36 241.593C171.36 241.039 171.279 240.502 171.117 239.981C170.955 239.461 170.712 239.001 170.387 238.603C170.063 238.205 169.667 237.887 169.201 237.65C168.735 237.414 168.198 237.295 167.589 237.295C166.954 237.295 166.404 237.42 165.937 237.67C165.471 237.92 165.079 238.248 164.762 238.653C164.444 239.058 164.208 239.521 164.053 240.041C163.898 240.563 163.821 241.093 163.821 241.633Z" fill="#263238"/>
<path d="M176.672 248.809V234.418H183.158C183.833 234.418 184.459 234.56 185.033 234.843C185.607 235.127 186.104 235.499 186.523 235.958C186.941 236.417 187.269 236.938 187.506 237.519C187.742 238.1 187.861 238.688 187.861 239.282C187.861 239.728 187.807 240.157 187.699 240.569C187.591 240.981 187.435 241.369 187.233 241.734C187.03 242.099 186.783 242.427 186.493 242.717C186.203 243.008 185.875 243.254 185.51 243.457L188.672 248.809H184.922L182.166 244.167H179.997V248.809H176.672ZM179.996 241.269H183.036C183.427 241.269 183.766 241.083 184.049 240.711C184.333 240.339 184.475 239.863 184.475 239.282C184.475 238.688 184.313 238.215 183.989 237.863C183.665 237.512 183.313 237.336 182.935 237.336H179.996V241.269Z" fill="#263238"/>
<path d="M82.7209 113.277V135.488C84.2669 133.287 86.4459 131.58 89.2599 130.369C90.7499 129.764 92.4889 129.461 94.4759 129.461C101.318 129.461 106.369 131.855 109.626 136.644C112.441 140.772 113.849 146.608 113.849 154.148V176.441C113.849 184.093 111.426 190.368 106.583 195.266C101.959 200.001 96.1239 202.367 89.0789 202.367C82.2529 202.367 76.5829 199.89 72.0699 194.936C67.7209 190.203 65.5469 184.423 65.5469 177.597V175.12L80.4919 173.964L80.8229 177.515C81.2069 181.643 82.8869 184.396 85.8589 185.771C86.7389 186.212 87.6749 186.432 88.6659 186.432C95.0509 186.432 98.2439 183.102 98.2439 176.442V151.094C98.2439 148.067 97.1369 145.562 94.9229 143.58C93.8719 142.645 92.4049 142.176 90.5239 142.176C87.7569 142.176 85.7089 143.249 84.3819 145.396C83.2749 147.268 82.7209 149.25 82.7209 151.341V154.148H67.1159V97.5889H112.776V113.277H82.7209Z" fill="#D2AC47"/>
<path d="M176.434 177.596C176.434 184.478 174.011 190.312 169.168 195.1C164.324 199.889 158.517 202.283 151.747 202.283C144.865 202.283 139.017 199.876 134.201 195.058C129.383 190.243 126.976 184.422 126.976 177.595V121.12C126.976 114.24 129.398 108.392 134.242 103.575C139.085 98.7586 144.92 96.3496 151.746 96.3496C158.626 96.3496 164.461 98.7716 169.25 103.615C174.038 108.46 176.433 114.295 176.433 121.119V177.596H176.434ZM160.25 120.79C160.25 118.313 159.37 116.195 157.608 114.432C155.845 112.671 153.727 111.79 151.25 111.79C148.773 111.79 146.668 112.671 144.933 114.432C143.199 116.194 142.332 118.312 142.332 120.79V177.348C142.332 179.825 143.199 181.945 144.933 183.706C146.667 185.468 148.773 186.348 151.25 186.348C153.727 186.348 155.845 185.468 157.608 183.706C159.369 181.945 160.25 179.826 160.25 177.348V120.79Z" fill="#D2AC47"/>
<path d="M239.348 177.596C239.348 184.478 236.925 190.312 232.082 195.1C227.238 199.889 221.431 202.283 214.661 202.283C207.779 202.283 201.932 199.876 197.115 195.058C192.297 190.243 189.89 184.422 189.89 177.595V121.12C189.89 114.24 192.312 108.392 197.156 103.575C201.999 98.7586 207.834 96.3496 214.66 96.3496C221.54 96.3496 227.375 98.7716 232.164 103.615C236.953 108.46 239.347 114.295 239.347 121.119V177.596H239.348ZM223.165 120.79C223.165 118.313 222.284 116.195 220.523 114.432C218.761 112.671 216.642 111.79 214.165 111.79C211.688 111.79 209.583 112.671 207.849 114.432C206.115 116.194 205.248 118.312 205.248 120.79V177.348C205.248 179.825 206.115 181.945 207.849 183.706C209.583 185.468 211.689 186.348 214.165 186.348C216.641 186.348 218.76 185.468 220.523 183.706C222.284 181.945 223.165 179.826 223.165 177.348V120.79Z" fill="#D2AC47"/>
<path d="M70.013 353.737H43.458V380.292H70.013V353.737Z" fill="#37474F"/>
<path d="M56.7352 375.886C61.634 375.886 65.6052 371.914 65.6052 367.016C65.6052 362.117 61.634 358.146 56.7352 358.146C51.8365 358.146 47.8652 362.117 47.8652 367.016C47.8652 371.914 51.8365 375.886 56.7352 375.886Z" fill="#455A64"/>
<path d="M55.1122 363.433H53.1172V370.749H55.1122V363.433Z" fill="#263238"/>
<path d="M60.6708 363.433H58.6758V370.749H60.6708V363.433Z" fill="#263238"/>
<path d="M36.8516 421.592L90.1386 421.349L143.426 421.261L250 421.093L356.574 421.26L409.861 421.348L463.147 421.592L409.861 421.837L356.574 421.925L250 422.091L143.426 421.924L90.1386 421.835L36.8516 421.592Z" fill="#263238"/>
<path d="M128.085 396.524C129.052 398.639 125.238 413.83 124.041 416.947C122.844 420.064 118.652 437.478 116.61 438.23C114.568 438.983 104.679 438.767 103.281 438.23C101.884 437.692 103.281 434.721 104.893 433.681C106.505 432.641 108.426 431.045 108.426 431.045C108.426 431.045 105.538 404.156 106.076 401.146C106.613 398.136 125.479 390.827 128.085 396.524Z" fill="#D2AC47"/>
<path opacity="0.1" d="M128.085 396.524C129.052 398.639 125.238 413.83 124.041 416.947C122.844 420.064 118.652 437.478 116.61 438.23C114.568 438.983 104.679 438.767 103.281 438.23C101.884 437.692 103.281 434.721 104.893 433.681C106.505 432.641 108.426 431.045 108.426 431.045C108.426 431.045 105.538 404.156 106.076 401.146C106.613 398.136 125.479 390.827 128.085 396.524Z" fill="black"/>
<path opacity="0.1" d="M107.4 437.059C107.509 436.534 107.728 436.007 108.046 435.572C108.367 435.132 108.749 434.745 109.185 434.418C109.59 434.114 110.097 433.823 110.602 433.73C110.668 433.718 110.72 433.798 110.667 433.848C110.491 434.013 110.291 434.15 110.117 434.323C109.942 434.497 109.763 434.669 109.596 434.85C109.269 435.201 108.993 435.594 108.75 436.007C108.505 436.424 108.268 436.843 108.056 437.278C107.842 437.718 107.717 438.191 107.549 438.648C107.516 438.738 107.378 438.745 107.354 438.643C107.229 438.121 107.292 437.578 107.4 437.059Z" fill="black"/>
<path opacity="0.1" d="M104.508 435.474C105.029 434.504 105.937 433.812 106.923 433.367C106.985 433.339 107.055 433.418 106.997 433.468C106.268 434.101 105.549 434.778 105.082 435.635C104.618 436.487 104.376 437.547 104.701 438.487C104.716 438.531 104.654 438.547 104.631 438.514C104.004 437.618 103.997 436.428 104.508 435.474Z" fill="black"/>
<path opacity="0.1" d="M106.939 415.97L120.529 428.83C122.029 423.9 123.429 418.54 124.039 416.95C125.239 413.83 129.049 398.64 128.089 396.52C125.479 390.83 106.609 398.14 106.079 401.15C105.829 402.57 106.329 409.27 106.939 415.97Z" fill="black"/>
<path d="M179.406 411.722C179.958 412.244 185.305 407.183 186.127 404.812C186.949 402.441 183.525 395.75 184.159 394.613C184.792 393.476 187.707 392.56 189.218 394.311C190.728 396.062 194.605 405.654 193.797 409.754C192.989 413.854 184.737 423.016 183.875 422.969C183.013 422.922 179.406 411.722 179.406 411.722Z" fill="#D2AC47"/>
<path opacity="0.1" d="M179.407 411.723C179.407 411.723 183.015 422.919 183.872 422.968C184.503 423 189.082 418.114 191.816 413.883L184.325 407.565C182.441 409.798 179.787 412.079 179.407 411.723Z" fill="black"/>
<path d="M149.188 365.46H104.786C104.786 365.46 101.489 394.697 101.847 398.567C102.205 402.437 121.722 431.109 127.774 434.808C133.915 438.562 168.602 438.688 177.063 436.826C183.641 435.379 189.133 426.982 186.401 414.045C185.207 408.391 169.795 394.912 167.645 392.332C165.495 389.753 149.188 365.46 149.188 365.46Z" fill="#C7C7C7"/>
<path d="M101.848 398.571C102.208 402.441 121.718 431.111 127.778 434.811C133.918 438.561 168.598 438.691 177.068 436.831C183.638 435.381 189.138 426.981 186.398 414.041C185.208 408.391 169.798 394.911 167.648 392.331C166.328 390.751 159.708 381.031 154.768 373.731C151.638 369.111 149.188 365.461 149.188 365.461H104.788C104.788 365.461 103.958 372.801 103.178 380.611C102.398 388.391 101.668 396.641 101.848 398.571Z" fill="#D2AC47"/>
<path opacity="0.1" d="M103.178 380.611C127.038 387.971 148.258 377.501 154.768 373.731C151.638 369.111 149.188 365.461 149.188 365.461H104.788C104.788 365.461 103.958 372.801 103.178 380.611Z" fill="black"/>
<path d="M177.91 412.635C177.91 412.635 165.686 404.968 157.118 406.353C148.549 407.739 145.525 425.336 149.63 435.238C149.63 435.238 141.811 437.56 141.811 441.338C141.811 443.489 146.277 444.175 152.724 444.023C159.172 443.871 171.981 443.741 172.265 442.121C172.549 440.501 171.421 438.27 171.421 438.27C171.421 438.27 182.987 436.966 185.257 429.305C187.527 421.644 179.839 413.934 177.91 412.635Z" fill="#D2AC47"/>
<path opacity="0.1" d="M161.223 436.106C164.461 437.498 168.002 438.167 171.508 438.392C171.575 438.396 171.596 438.508 171.522 438.517C167.89 438.929 164.336 438.014 161.184 436.192C161.139 436.166 161.173 436.084 161.223 436.106Z" fill="black"/>
<path opacity="0.1" d="M146.838 444.069C147.159 442.606 148.301 441.451 149.499 440.627C150.194 440.149 150.96 439.763 151.759 439.49C152.674 439.177 153.624 439.01 154.544 438.721C154.62 438.697 154.674 438.81 154.597 438.836C153.803 439.102 153.035 439.507 152.296 439.896C151.554 440.287 150.826 440.712 150.132 441.183C148.933 441.998 148.022 443.05 147.141 444.184C147.047 444.305 146.8 444.244 146.838 444.069Z" fill="black"/>
<path opacity="0.1" d="M148.421 438.002C148.502 437.99 148.528 438.097 148.452 438.125C146.089 438.995 144.206 441.078 143.189 443.344C143.146 443.44 142.97 443.44 142.985 443.311C143.3 440.501 145.688 438.401 148.421 438.002Z" fill="black"/>
<path opacity="0.1" d="M144.607 437.451C144.577 437.471 144.627 437.511 144.657 437.501C144.857 437.461 147.047 435.991 149.467 435.291C149.667 435.641 149.877 435.991 150.107 436.331C150.147 436.401 150.257 436.341 150.217 436.271C148.697 433.221 148.087 429.781 148.077 426.391C148.067 424.591 148.207 422.771 148.397 420.981C148.387 420.971 148.387 420.961 148.397 420.951C148.857 417.791 149.767 414.701 151.297 411.931C152.227 410.211 153.427 408.551 155.067 407.591C156.707 406.641 158.757 406.491 160.717 406.571C162.707 406.671 164.687 407.101 166.617 407.661C168.557 408.191 170.467 408.891 172.337 409.681C168.767 407.761 164.897 406.251 160.777 405.811C158.727 405.611 156.537 405.751 154.617 406.801C152.717 407.891 151.427 409.651 150.417 411.441C148.477 415.121 147.517 419.221 147.347 423.321C147.327 423.791 147.307 424.271 147.307 424.741C147.307 424.751 147.307 424.751 147.307 424.761C147.277 425.391 147.267 426.011 147.287 426.641C147.367 429.601 147.967 432.571 149.397 435.171C147.227 435.611 145.967 436.231 144.607 437.451Z" fill="black"/>
<path d="M142.433 400.287C143.4 402.402 139.586 417.593 138.389 420.71C137.192 423.827 133 441.241 130.958 441.993C128.916 442.745 119.026 442.53 117.629 441.993C116.232 441.455 117.629 438.484 119.241 437.444C120.853 436.404 122.774 434.808 122.774 434.808C122.774 434.808 119.886 407.919 120.424 404.909C120.961 401.899 139.827 394.59 142.433 400.287Z" fill="#D2AC47"/>
<path opacity="0.1" d="M135.766 429.149C136.677 426.406 137.868 423.756 138.779 421.019C138.815 420.91 138.989 420.961 138.954 421.071C138.252 423.275 137.715 425.528 137.062 427.75C137.157 427.599 137.246 427.445 137.343 427.296C137.915 426.412 138.62 425.542 138.915 424.523C138.947 424.412 139.12 424.464 139.09 424.575C138.959 425.052 138.731 425.48 138.499 425.914C138.237 426.405 137.97 426.893 137.705 427.382C137.361 428.018 136.989 428.642 136.601 429.256C136.587 429.299 136.576 429.342 136.562 429.384C135.648 432.136 134.743 434.869 133.53 437.507C133.466 437.646 133.259 437.592 133.294 437.437C133.927 434.618 134.854 431.895 135.766 429.149Z" fill="black"/>
<path opacity="0.1" d="M120.046 409.204C120.049 409.146 120.158 409.129 120.167 409.192C120.455 411.231 120.579 413.293 120.785 415.34C120.999 417.469 121.259 419.593 121.494 421.72C121.96 425.953 122.668 430.167 123.006 434.409C123.02 434.589 122.698 434.613 122.652 434.443C121.535 430.352 121.041 426.144 120.6 421.96C120.381 419.884 120.249 417.8 120.149 415.717C120.044 413.556 119.92 411.365 120.046 409.204Z" fill="black"/>
<path opacity="0.1" d="M121.265 440.61C121.374 440.084 121.593 439.558 121.911 439.123C122.232 438.683 122.615 438.295 123.05 437.969C123.455 437.665 123.962 437.374 124.467 437.281C124.533 437.269 124.585 437.349 124.532 437.399C124.356 437.564 124.155 437.701 123.982 437.874C123.807 438.048 123.629 438.22 123.461 438.401C123.134 438.752 122.857 439.145 122.615 439.558C122.37 439.975 122.133 440.394 121.921 440.829C121.707 441.269 121.581 441.742 121.414 442.199C121.381 442.289 121.243 442.296 121.219 442.194C121.094 441.673 121.158 441.13 121.265 440.61Z" fill="black"/>
<path opacity="0.1" d="M118.374 439.026C118.895 438.056 119.803 437.364 120.789 436.919C120.851 436.891 120.921 436.97 120.863 437.02C120.134 437.653 119.414 438.331 118.948 439.187C118.484 440.039 118.242 441.099 118.567 442.039C118.582 442.083 118.52 442.099 118.497 442.066C117.869 441.17 117.862 439.98 118.374 439.026Z" fill="black"/>
<path d="M121.777 324.806C122.257 323.053 117.881 316.848 116.212 314.761C114.543 312.674 105.348 309.542 102.412 311.149C101.259 311.78 99.118 316.195 96.227 320.032C91.754 325.968 86.526 332.196 88.425 333.872C93.035 337.94 103.537 331.524 106.945 329.368C110.354 327.212 113.471 324.59 114.301 324.683C115.397 324.805 117.705 326.54 118.625 326.643C120.817 326.886 121.777 324.806 121.777 324.806Z" fill="#D2AC47"/>
<path opacity="0.1" d="M121.777 324.806C122.257 323.053 117.881 316.848 116.212 314.761C114.543 312.674 105.348 309.542 102.412 311.149C101.259 311.78 99.118 316.195 96.227 320.032C91.754 325.968 86.526 332.196 88.425 333.872C93.035 337.94 103.537 331.524 106.945 329.368C110.354 327.212 113.471 324.59 114.301 324.683C115.397 324.805 117.705 326.54 118.625 326.643C120.817 326.886 121.777 324.806 121.777 324.806Z" fill="black"/>
<path d="M142.952 318.592C153.679 325.006 158.441 342.074 158.731 344.798C158.967 347.023 164.083 354.895 163.169 363.366C162.581 368.813 152.803 376.043 144.842 375.971C143.377 375.958 130.985 380.452 120.524 379.729C110.063 379.006 102.129 371.583 101.82 370.952C101.512 370.321 93.0305 369.096 92.4975 360.349C91.6465 346.385 105.896 322.592 109.973 319.341C116.72 313.959 135.664 314.234 142.952 318.592Z" fill="#D2AC47"/>
<path d="M137.903 325.952C137.696 324.053 143.268 318.342 145.347 316.453C147.426 314.565 157.488 312.843 160.268 314.998C161.359 315.844 162.848 320.782 165.21 325.243C168.865 332.146 173.256 339.478 171.006 340.902C165.546 344.358 155.715 335.954 152.536 333.15C149.357 330.346 146.558 327.108 145.682 327.065C144.525 327.009 141.841 328.427 140.869 328.38C138.553 328.27 137.903 325.952 137.903 325.952Z" fill="#D2AC47"/>
<path opacity="0.1" d="M137.903 325.952C137.696 324.053 143.268 318.342 145.347 316.453C147.426 314.565 157.488 312.843 160.268 314.998C161.359 315.844 162.848 320.782 165.21 325.243C168.865 332.146 173.256 339.478 171.006 340.902C165.546 344.358 155.715 335.954 152.536 333.15C149.357 330.346 146.558 327.108 145.682 327.065C144.525 327.009 141.841 328.427 140.869 328.38C138.553 328.27 137.903 325.952 137.903 325.952Z" fill="black"/>
<path opacity="0.1" d="M118.302 349.929C124.884 349.988 127.879 357.037 128.673 358.872C129.468 360.708 133.525 364.913 133.632 369.302C133.739 373.691 125.4 378.597 116.594 377.047C107.831 375.505 103.185 370.563 103.235 366.102C103.275 362.512 106.66 359.404 107.034 358.457C107.409 357.51 112.305 349.875 118.302 349.929Z" fill="black"/>
<path opacity="0.1" d="M134.479 362.311C135.355 363.308 136.095 364.424 136.688 365.621C137.283 366.816 137.748 368.092 137.977 369.443C138.186 370.782 138.173 372.25 137.548 373.541C137.248 374.182 136.799 374.746 136.27 375.188C135.716 375.604 135.114 375.919 134.479 376.111C135.584 375.374 136.448 374.397 136.827 373.243C137.222 372.097 137.198 370.834 136.992 369.603C136.802 368.363 136.405 367.142 135.975 365.928C135.52 364.722 135.029 363.515 134.479 362.311Z" fill="black"/>
<path opacity="0.1" d="M104.332 359.681C103.761 360.387 103.222 361.076 102.724 361.779C102.24 362.488 101.769 363.198 101.454 363.963C101.118 364.717 100.919 365.506 100.874 366.321C100.839 367.146 101.065 367.956 101.339 368.832C100.716 368.187 100.212 367.333 100.095 366.367C99.9706 365.408 100.169 364.429 100.54 363.559C100.923 362.689 101.485 361.931 102.129 361.278C102.773 360.629 103.502 360.063 104.332 359.681Z" fill="black"/>
<path d="M207.142 453.856C196.366 453.856 184.478 453.673 172.532 453.451C166.372 453.337 161.506 453.246 158.469 453.246C142.944 453.246 138.476 433.29 134.155 413.991C133.552 411.302 132.949 408.609 132.318 405.965C131.085 400.804 130.067 395.586 129.082 390.54C126.037 374.934 123.407 361.455 116.531 360.718C107.445 359.751 99.3539 373.34 96.3999 394.551L94.4199 394.276C97.5339 371.919 106.499 357.62 116.744 358.73C125.088 359.625 127.848 373.774 131.045 390.158C132.026 395.183 133.04 400.381 134.264 405.501C134.898 408.154 135.503 410.856 136.108 413.556C140.448 432.939 144.547 451.247 158.47 451.247C161.526 451.247 166.4 451.338 172.57 451.452C186.088 451.705 204.601 452.049 220.274 451.741C245.691 451.244 248.699 449.237 249.016 448.634C249.002 444.473 222.174 439.466 212.075 437.581C201.866 435.676 201.468 435.601 201.583 434.348C201.687 433.224 202.936 433.224 204.827 433.224H246.77C259.926 433.224 264.165 414.298 266.698 402.991C267.425 399.747 267.999 397.183 268.633 395.863C271.572 389.739 279.009 390.634 279.323 390.674L279.065 392.656C278.806 392.626 272.743 391.918 270.435 396.728C269.9 397.843 269.32 400.431 268.649 403.428C265.985 415.32 261.527 435.224 246.77 435.224H210.351C211.033 435.352 211.734 435.483 212.442 435.615C236.863 440.174 251.002 443.777 251.002 448.707C251.002 449.069 250.89 449.61 250.356 450.134C247.378 453.054 229.709 453.856 207.142 453.856Z" fill="#263238"/>
<path d="M101.758 393.098L89.4971 392.363L89.0566 399.716L101.317 400.451L101.758 393.098Z" fill="#455A64"/>
<path d="M99.5896 390.628L91.9404 390.17L91.8007 392.502L99.4499 392.96L99.5896 390.628Z" fill="#37474F"/>
<path d="M93.1153 399.96L91.6729 399.874L91.3367 405.485L92.7791 405.571L93.1153 399.96Z" fill="#D2AC47"/>
<path d="M98.6641 400.292L97.2217 400.206L96.8855 405.817L98.3279 405.903L98.6641 400.292Z" fill="#D2AC47"/>
<path d="M283.053 385.523V397.806H288.419V385.523H283.053Z" fill="#455A64"/>
<path d="M278.717 387.832V395.495H283.053V387.832H278.717Z" fill="#37474F"/>
<path d="M109.952 360.601C109.952 360.601 112.562 363.62 113.573 362.983C114.584 362.346 117.113 356.394 117.113 356.394C117.113 356.394 117.716 363.959 119.669 364.167C121.623 364.375 124.956 361.39 124.956 361.39L117.071 355.916L109.952 360.601Z" fill="#D2AC47"/>
<path opacity="0.1" d="M109.952 360.601C109.952 360.601 112.562 363.62 113.573 362.983C114.584 362.346 117.113 356.394 117.113 356.394C117.113 356.394 117.716 363.959 119.669 364.167C121.623 364.375 124.956 361.39 124.956 361.39L117.071 355.916L109.952 360.601Z" fill="black"/>
<path opacity="0.1" d="M148.65 351.211C149.423 348.811 149.699 346.244 149.455 343.669C149.342 342.379 149.038 341.089 148.541 339.841C148.295 339.217 147.967 338.617 147.583 338.049C147.205 337.477 146.754 336.943 146.241 336.47C145.989 336.228 145.707 336.022 145.426 335.814C145.141 335.619 144.841 335.458 144.547 335.282L144.101 335.031L143.627 334.836C143.307 334.718 143.003 334.555 142.67 334.481C141.364 334.09 140.001 333.983 138.69 334.103C136.061 334.334 133.61 335.357 131.613 336.89C133.972 336.052 136.391 335.518 138.74 335.576C139.905 335.636 141.059 335.762 142.112 336.18C142.382 336.262 142.627 336.405 142.886 336.511L143.27 336.682L143.627 336.905C143.862 337.055 144.114 337.187 144.339 337.345C144.556 337.51 144.774 337.673 144.97 337.864C145.794 338.581 146.426 339.526 146.911 340.56C147.424 341.587 147.737 342.73 148.006 343.893C148.494 346.239 148.65 348.703 148.65 351.211Z" fill="black"/>
<path opacity="0.1" d="M99.873 346.103C100.033 343.967 100.329 341.885 100.924 339.95C101.528 338.029 102.489 336.266 103.974 335.189C104.336 334.912 104.746 334.693 105.153 334.497C105.538 334.329 105.964 334.209 106.418 334.146C107.327 334.016 108.315 334.077 109.31 334.209C111.305 334.515 113.322 335.117 115.368 335.776C114.552 335.061 113.632 334.487 112.68 333.962C112.198 333.711 111.706 333.475 111.2 333.259C110.69 333.057 110.169 332.871 109.632 332.717C108.559 332.411 107.414 332.234 106.211 332.336C105.612 332.392 104.997 332.522 104.409 332.776C103.857 333.025 103.325 333.307 102.85 333.682C101.877 334.399 101.124 335.367 100.587 336.393C100.047 337.424 99.721 338.523 99.536 339.62C99.173 341.815 99.289 344.028 99.873 346.103Z" fill="black"/>
<path d="M132.364 348.07C132.395 347.956 132.616 348.224 132.607 348.348C132.37 351.36 132.656 354.851 135.606 355.984C135.697 356.019 135.681 356.17 135.571 356.151C131.939 355.523 131.611 350.886 132.364 348.07Z" fill="#263238"/>
<path d="M135.456 345.046C140.795 344.909 140.787 354.661 135.841 354.788C130.975 354.913 130.982 345.161 135.456 345.046Z" fill="#263238"/>
<path d="M111.734 345.704C111.72 345.587 111.463 345.821 111.455 345.945C111.27 348.961 110.5 352.378 107.421 353.088C107.326 353.11 107.321 353.262 107.432 353.258C111.117 353.144 112.088 348.598 111.734 345.704Z" fill="#263238"/>
<path d="M109.094 342.279C103.827 341.399 102.475 351.057 107.354 351.872C112.156 352.674 113.508 343.016 109.094 342.279Z" fill="#263238"/>
<path d="M116.914 356.121C117.86 356.429 124.448 354.345 123.947 352.349C123.404 350.189 114.14 349.68 112.976 351.083C111.812 352.485 115.923 355.798 116.914 356.121Z" fill="#263238"/>
<path d="M125.128 361.285C124.068 362.053 122.979 362.807 121.776 363.38C121.19 363.66 120.521 363.91 119.958 363.898C119.581 363.973 119.262 363.455 119.045 362.97C118.609 361.97 118.399 360.865 118.207 359.777C118.011 358.685 117.896 357.574 117.784 356.479L117.472 353.437L116.561 356.392C116.281 357.301 115.952 358.214 115.622 359.117C115.275 360.015 114.911 360.916 114.445 361.759C114.327 361.969 114.198 362.173 114.055 362.361C113.917 362.548 113.756 362.736 113.596 362.836C113.483 362.924 113.279 362.928 113.04 362.895C112.807 362.83 112.556 362.739 112.326 362.599C111.395 362.046 110.645 361.254 109.948 360.469C110.434 361.351 111.018 362.214 111.955 362.934C112.186 363.117 112.48 363.27 112.821 363.387C113.011 363.424 113.195 363.482 113.412 363.465C113.606 363.48 113.887 363.41 114.048 363.319C114.392 363.138 114.592 362.927 114.788 362.717C114.977 362.505 115.139 362.289 115.288 362.07C115.887 361.197 116.319 360.292 116.719 359.381C117.126 358.47 117.457 357.552 117.768 356.615L116.545 356.528C116.62 357.665 116.793 358.78 117.005 359.904C117.109 360.465 117.256 361.023 117.423 361.581C117.599 362.138 117.78 362.697 118.087 363.247C118.243 363.522 118.409 363.799 118.676 364.068C118.817 364.201 118.973 364.337 119.214 364.444C119.333 364.499 119.467 364.541 119.624 364.559C119.786 364.588 119.867 364.561 119.992 364.562C120.906 364.491 121.546 364.129 122.15 363.788C123.326 363.063 124.29 362.206 125.128 361.285Z" fill="#263238"/>
<path d="M74.9014 395.894C76.8984 395.734 78.8794 395.801 80.8574 395.924C82.8334 396.069 84.8054 396.271 86.7624 396.702C84.7654 396.863 82.7844 396.796 80.8064 396.672C78.8304 396.526 76.8574 396.323 74.9014 395.894Z" fill="#263238"/>
<path d="M103.685 402.219C105.585 402.847 107.383 403.677 109.155 404.558C110.917 405.458 112.654 406.41 114.288 407.566C112.387 406.94 110.59 406.109 108.818 405.227C107.056 404.325 105.32 403.374 103.685 402.219Z" fill="#263238"/>
<path d="M81.25 415.969C82.205 414.208 83.342 412.584 84.523 410.993C85.722 409.416 86.967 407.873 88.395 406.468C87.441 408.23 86.305 409.854 85.122 411.444C83.922 413.02 82.677 414.563 81.25 415.969Z" fill="#263238"/>
<path d="M70.0127 384.064C71.5557 384.556 73.0657 385.124 74.5717 385.702C76.0807 386.273 77.5667 386.898 79.0517 387.524C80.5307 388.166 82.0087 388.809 83.4637 389.506C84.9217 390.196 86.3757 390.896 87.7957 391.674C86.2527 391.183 84.7417 390.615 83.2367 390.037C81.7277 389.465 80.2417 388.84 78.7567 388.214C77.2787 387.571 75.8007 386.928 74.3457 386.231C72.8877 385.542 71.4337 384.841 70.0127 384.064Z" fill="#263238"/>
<path d="M105.128 392.935C106.524 392.198 107.986 391.678 109.465 391.211C110.95 390.766 112.453 390.375 114.022 390.203C112.627 390.942 111.164 391.462 109.685 391.927C108.199 392.371 106.697 392.761 105.128 392.935Z" fill="#263238"/>
<path d="M90.7528 387.87C89.9348 386.572 89.1898 385.237 88.4558 383.897C87.7148 382.56 87.0258 381.197 86.3378 379.835C85.6658 378.464 84.9948 377.093 84.3748 375.695C83.7488 374.301 83.1338 372.902 82.5928 371.465C83.4128 372.763 84.1568 374.098 84.8908 375.438C85.6318 376.775 86.3208 378.137 87.0078 379.501C87.6788 380.872 88.3508 382.244 88.9688 383.641C89.5958 385.035 90.2108 386.434 90.7528 387.87Z" fill="#263238"/>
<path d="M111.001 419.503C110.108 418.481 109.284 417.412 108.469 416.337C107.647 415.266 106.874 414.162 106.101 413.058C105.343 411.944 104.586 410.828 103.877 409.68C103.162 408.536 102.456 407.385 101.819 406.187C102.713 407.208 103.537 408.277 104.352 409.352C105.173 410.423 105.946 411.527 106.719 412.632C107.476 413.747 108.234 414.861 108.942 416.01C109.658 417.153 110.363 418.305 111.001 419.503Z" fill="#263238"/>
<path d="M379.942 168.861H297.283L290.883 112.721H373.543L379.942 168.861Z" fill="#A6A6A6"/>
<path d="M375.438 165.095H300.928L295.387 116.486H369.897L375.438 165.095Z" fill="white"/>
<path d="M329.421 142.064L328.231 143.479L316.509 133.359L317.699 131.944L329.421 142.064Z" fill="#D2AC47"/>
<path d="M326.404 131.944L328.043 133.359L319.526 143.479L317.887 142.064L326.404 131.944Z" fill="#D2AC47"/>
<path d="M354.48 142.064L353.289 143.479L341.567 133.359L342.758 131.944L354.48 142.064Z" fill="#D2AC47"/>
<path d="M351.463 131.944L353.101 133.359L344.585 143.479L342.946 142.064L351.463 131.944Z" fill="#D2AC47"/>
<path d="M315.009 151.79L314.693 149.789H360.121L360.438 151.79H315.009Z" fill="#D2AC47"/>
<path d="M404.199 165.096H297.861V168.862H404.199V165.096Z" fill="#A6A6A6"/>
<path d="M413.177 165.096H320.956V168.862H413.177V165.096Z" fill="#C7C7C7"/>
<path d="M370.166 118.845L369.897 116.486H295.387L295.656 118.845H370.166Z" fill="#263238"/>
<path d="M301.658 117.666C301.694 117.99 301.959 118.252 302.251 118.252C302.542 118.252 302.75 117.99 302.714 117.666C302.678 117.342 302.413 117.08 302.121 117.08C301.829 117.08 301.622 117.343 301.658 117.666Z" fill="#C7C7C7"/>
<path d="M299.504 117.666C299.54 117.99 299.805 118.252 300.097 118.252C300.389 118.252 300.596 117.99 300.56 117.666C300.524 117.342 300.259 117.08 299.967 117.08C299.675 117.08 299.468 117.343 299.504 117.666Z" fill="white"/>
<path d="M297.348 117.666C297.384 117.99 297.649 118.252 297.941 118.252C298.233 118.252 298.44 117.99 298.404 117.666C298.368 117.342 298.103 117.08 297.811 117.08C297.52 117.08 297.312 117.343 297.348 117.666Z" fill="#D2AC47"/>
</svg>
