<svg width="1022" height="231" viewBox="0 0 1022 231" fill="none" xmlns="http://www.w3.org/2000/svg">
<path d="M17.5993 217.099C27.0103 217.099 34.6393 209.47 34.6393 200.059C34.6393 190.648 27.0103 183.019 17.5993 183.019C8.18839 183.019 0.559326 190.648 0.559326 200.059C0.559326 209.47 8.18839 217.099 17.5993 217.099Z" fill="white"/>
<path d="M66.0993 118.299C54.6693 111.299 45.9293 106.319 39.7293 101.379C4.81933 73.5891 18.4193 39.3992 18.4193 39.3992C0.569332 52.7792 -4.48067 79.3392 4.02933 99.1092C12.6693 119.169 34.8193 131.339 52.2993 142.659C62.2293 149.089 75.6393 155.539 83.8093 164.399C95.6493 177.239 98.8393 195.399 89.9493 210.139C79.4093 227.589 58.7393 232.089 39.7693 223.919C39.7693 223.919 70.3293 239.359 97.5193 222.739C97.5193 222.739 116.269 211.249 117.429 183.969C118.579 156.679 100.089 139.109 66.0993 118.299Z" fill="white"/>
<path d="M89.0093 87.6491C76.2593 79.8391 61.8693 72.6491 51.9993 60.9291C41.8093 48.8091 39.5893 30.7491 49.7793 17.7991C56.3793 9.41911 66.9093 5.2191 77.4493 5.5691C98.4893 6.2591 122.069 20.8291 123.229 58.9791H129.719V2.32911C129.719 2.32911 124.729 2.32911 124.689 2.32911C124.689 2.32911 123.799 6.1891 123.719 6.5091C123.259 8.4991 122.739 10.9891 121.219 12.4591C119.499 14.1191 116.879 14.2291 114.679 13.6591C105.889 11.3491 95.7193 -6.22089 58.4993 2.32911C28.9393 9.11911 18.2693 42.5891 27.9293 68.9891C39.4493 100.459 75.8793 108.039 98.9593 128.339C135.259 158.599 124.209 190.889 124.209 190.899C127.819 187.919 130.739 184.079 133.319 180.199C136.829 174.909 139.959 168.969 141.089 162.689C147.539 126.859 115.609 103.929 89.0093 87.6491Z" fill="white"/>
<path d="M341.531 116.297C337.705 107.496 331.838 100.609 323.93 95.6345C316.15 90.5326 306.966 87.9817 296.38 87.9817C286.431 87.9817 277.503 90.2775 269.595 94.8692C261.687 99.4608 255.438 106.029 250.846 114.575C246.254 122.993 243.959 132.814 243.959 144.038C243.959 155.262 246.254 165.147 250.846 173.693C255.438 182.238 261.687 188.807 269.595 193.399C277.503 197.99 286.431 200.286 296.38 200.286C305.691 200.286 314.045 198.309 321.443 194.355C328.968 190.274 334.963 184.534 339.427 177.136C344.019 169.611 346.633 160.874 347.271 150.926H291.023V140.021H361.429V149.778C360.791 161.512 357.602 172.162 351.863 181.728C346.123 191.167 338.406 198.628 328.713 204.113C319.147 209.597 308.369 212.339 296.38 212.339C284.008 212.339 272.784 209.469 262.708 203.73C252.632 197.863 244.66 189.764 238.793 179.432C233.053 168.974 230.184 157.175 230.184 144.038C230.184 130.901 233.053 119.167 238.793 108.835C244.66 98.3767 252.632 90.2775 262.708 84.5379C272.784 78.6708 284.008 75.7372 296.38 75.7372C310.665 75.7372 323.165 79.3085 333.879 86.4511C344.592 93.5937 352.373 103.542 357.22 116.297H341.531ZM457.132 211L424.033 155.135H399.353V211H385.961V77.2678H426.138C441.061 77.2678 452.349 80.8391 460.001 87.9817C467.782 95.1243 471.672 104.499 471.672 116.106C471.672 125.799 468.866 134.09 463.254 140.977C457.769 147.737 449.606 152.137 438.765 154.178L473.202 211H457.132ZM399.353 144.23H426.329C436.788 144.23 444.632 141.679 449.861 136.577C455.218 131.475 457.897 124.651 457.897 116.106C457.897 107.305 455.346 100.545 450.244 95.8258C445.142 90.979 437.107 88.5556 426.138 88.5556H399.353V144.23ZM558.323 212.339C545.951 212.339 534.727 209.469 524.651 203.73C514.575 197.863 506.603 189.764 500.736 179.432C494.996 168.974 492.127 157.175 492.127 144.038C492.127 130.901 494.996 119.167 500.736 108.835C506.603 98.3767 514.575 90.2775 524.651 84.5379C534.727 78.6708 545.951 75.7372 558.323 75.7372C570.823 75.7372 582.11 78.6708 592.187 84.5379C602.263 90.2775 610.171 98.3767 615.91 108.835C621.65 119.167 624.52 130.901 624.52 144.038C624.52 157.175 621.65 168.974 615.91 179.432C610.171 189.764 602.263 197.863 592.187 203.73C582.11 209.469 570.823 212.339 558.323 212.339ZM558.323 200.669C568.272 200.669 577.2 198.373 585.108 193.781C593.016 189.19 599.265 182.621 603.857 174.075C608.449 165.402 610.745 155.39 610.745 144.038C610.745 132.687 608.449 122.738 603.857 114.192C599.265 105.647 593.016 99.0782 585.108 94.4865C577.2 89.8949 568.272 87.599 558.323 87.599C548.374 87.599 539.446 89.8949 531.538 94.4865C523.63 99.0782 517.381 105.647 512.789 114.192C508.197 122.738 505.902 132.687 505.902 144.038C505.902 155.39 508.197 165.402 512.789 174.075C517.381 182.621 523.63 189.19 531.538 193.781C539.446 198.373 548.374 200.669 558.323 200.669ZM661.843 77.2678V161.448C661.843 174.713 664.968 184.534 671.218 190.911C677.595 197.289 686.268 200.477 697.237 200.477C708.206 200.477 716.752 197.353 722.874 191.103C729.124 184.725 732.249 174.841 732.249 161.448V77.2678H745.641V161.257C745.641 178.221 741.113 190.975 732.057 199.521C723.129 208.066 711.459 212.339 697.046 212.339C682.633 212.339 670.899 208.066 661.843 199.521C652.915 190.975 648.451 178.221 648.451 161.257V77.2678H661.843ZM861.032 115.723C861.032 127.202 857.269 136.449 849.744 143.464C842.219 150.479 830.931 153.987 815.881 153.987H788.905V211H775.512V77.2678H815.881C830.804 77.2678 842.028 80.7753 849.553 87.7904C857.206 94.8054 861.032 104.116 861.032 115.723ZM815.881 142.508C836.798 142.508 847.257 133.579 847.257 115.723C847.257 106.795 844.77 100.035 839.796 95.4431C834.821 90.8515 826.85 88.5556 815.881 88.5556H788.905V142.508H815.881Z" fill="white"/>
<path d="M1001.84 198.599C1012.84 198.599 1021.76 189.681 1021.76 178.679C1021.76 167.678 1012.84 158.759 1001.84 158.759C990.838 158.759 981.919 167.678 981.919 178.679C981.919 189.681 990.838 198.599 1001.84 198.599Z" fill="white"/>
</svg>
