<svg width="135" height="94" viewBox="0 0 135 94" fill="none" xmlns="http://www.w3.org/2000/svg">
<path fill-rule="evenodd" clip-rule="evenodd" d="M104.174 3.27375C102.584 -1.09125 96.414 -1.09125 94.824 3.27375L87.609 23.1087L67.774 30.3237C63.409 31.9137 63.409 38.0837 67.774 39.6737L87.609 46.8887L94.824 66.7237C96.414 71.0887 102.584 71.0887 104.174 66.7237L111.389 46.8887L131.224 39.6737C135.589 38.0837 135.589 31.9137 131.224 30.3237L111.389 23.1087L104.174 3.27375Z" fill="#D2AC47"/>
<path fill-rule="evenodd" clip-rule="evenodd" d="M18.6366 30.4966C17.9097 28.5011 15.0891 28.5011 14.3623 30.4966L11.064 39.564L1.99657 42.8623C0.0011428 43.5891 0.0011428 46.4097 1.99657 47.1366L11.064 50.4349L14.3623 59.5023C15.0891 61.4977 17.9097 61.4977 18.6366 59.5023L21.9349 50.4349L31.0023 47.1366C32.9977 46.4097 32.9977 43.5891 31.0023 42.8623L21.9349 39.564L18.6366 30.4966Z" fill="#D2AC47"/>
<path fill-rule="evenodd" clip-rule="evenodd" d="M56.1022 71.1224C55.557 69.6259 53.4416 69.6259 52.8965 71.1224L50.4228 77.923L43.6222 80.3967C42.1256 80.9419 42.1256 83.0573 43.6222 83.6024L50.4228 86.0761L52.8965 92.8767C53.4416 94.3733 55.557 94.3733 56.1022 92.8767L58.5759 86.0761L65.3765 83.6024C66.873 83.0573 66.873 80.9419 65.3765 80.3967L58.5759 77.923L56.1022 71.1224Z" fill="#D2AC47"/>
</svg>
