<svg width="27" height="27" viewBox="0 0 27 27" fill="none" xmlns="http://www.w3.org/2000/svg">
<path d="M22.3661 7.962L13.4999 13.2855M5.61144 19.6327L12.0802 23.5117C12.5089 23.7694 12.9997 23.9055 13.4999 23.9055C14.0002 23.9055 14.4909 23.7694 14.9197 23.5117L21.3884 19.6327C21.8002 19.3864 22.1422 19.0365 22.3784 18.6191C22.6091 18.2029 22.7328 17.7349 22.7362 17.2579V9.312C22.7382 8.8313 22.615 8.35837 22.3787 7.93977C22.1424 7.52117 21.8011 7.17135 21.3884 6.92475L14.9197 3.47662C14.4886 3.22585 13.9987 3.09375 13.4999 3.09375C13.0012 3.09375 12.5113 3.22585 12.0802 3.47662L5.61144 6.92475C5.19898 7.17125 4.8578 7.5209 4.62149 7.93928C4.38517 8.35766 4.26186 8.83037 4.26369 9.31087V17.259C4.26707 17.7349 4.39082 18.2029 4.62144 18.6191C4.85769 19.0365 5.19969 19.3864 5.61144 19.6327Z" stroke="white" stroke-linecap="round" stroke-linejoin="round"/>
<path d="M4.63379 7.96144L13.4999 13.2849V23.9049M18.4274 14.5494V10.3251L9.07416 5.08594" stroke="white" stroke-linecap="round" stroke-linejoin="round"/>
</svg>
