<svg width="26" height="26" viewBox="0 0 26 26" fill="none" xmlns="http://www.w3.org/2000/svg">
<path d="M23.4332 11.9577C23.4249 14.6979 23.3435 16.1775 22.5849 17.2596C22.2707 17.7083 21.8805 18.0985 21.4318 18.4127C20.2203 19.2621 18.509 19.2621 15.0864 19.2621H10.9125C7.48991 19.2621 5.77965 19.2621 4.56713 18.4127C4.11848 18.0985 3.72825 17.7083 3.41409 17.2596C2.5647 16.0481 2.5647 14.3368 2.5647 10.9142C2.5647 7.49162 2.5647 5.78136 3.41409 4.56884C3.72825 4.12019 4.11848 3.72996 4.56713 3.4158C5.77861 2.56641 7.48991 2.56641 10.9125 2.56641H12.4777" stroke="white" stroke-linecap="round" stroke-linejoin="round"/>
<path d="M15.0866 6.74032C15.0866 6.74032 16.13 6.74032 17.1735 8.82728C17.1735 8.82728 20.4886 3.60988 23.4344 2.56641M11.9561 16.1316H14.0431M12.9996 19.2621V23.436M8.82568 23.436H17.1735" stroke="white" stroke-linecap="round" stroke-linejoin="round"/>
</svg>
