<svg width="26" height="26" viewBox="0 0 26 26" fill="none" xmlns="http://www.w3.org/2000/svg">
<path d="M17.3334 6.49935C17.3334 4.45618 17.3334 3.43568 16.6985 2.80085C16.0637 2.16602 15.0432 2.16602 13 2.16602C10.9569 2.16602 9.93635 2.16602 9.30152 2.80085C8.66669 3.43568 8.66669 4.45618 8.66669 6.49935M2.16669 15.166C2.16669 11.0808 2.16669 9.0376 3.43635 7.76902C4.70602 6.50043 6.7481 6.49935 10.8334 6.49935H15.1667C19.2519 6.49935 21.2951 6.49935 22.5637 7.76902C23.8323 9.03868 23.8334 11.0808 23.8334 15.166C23.8334 19.2513 23.8334 21.2944 22.5637 22.563C21.294 23.8316 19.2519 23.8327 15.1667 23.8327H10.8334C6.7481 23.8327 4.70494 23.8327 3.43635 22.563C2.16777 21.2933 2.16669 19.2513 2.16669 15.166Z" stroke="white"/>
<path d="M13 18.7761C14.1971 18.7761 15.1667 17.9679 15.1667 16.9713C15.1667 15.9746 14.1971 15.1654 13 15.1654C11.803 15.1654 10.8334 14.3572 10.8334 13.3594C10.8334 12.3628 11.803 11.5546 13 11.5546M13 18.7761C11.803 18.7761 10.8334 17.9679 10.8334 16.9713M13 18.7761V19.4987M13 11.5546V10.832M13 11.5546C14.1971 11.5546 15.1667 12.3628 15.1667 13.3594" stroke="white" stroke-linecap="round"/>
</svg>
