<svg width="32" height="32" viewBox="0 0 32 32" fill="none" xmlns="http://www.w3.org/2000/svg">
<path d="M15.9493 28C14.3147 28 12.772 27.6844 11.3213 27.0533C9.86979 26.4213 8.60267 25.5636 7.52001 24.48C6.43734 23.3964 5.57956 22.1253 4.94667 20.6667C4.31379 19.208 3.99823 17.6524 4.00001 16C4.00001 14.3262 4.32267 12.7596 4.96801 11.3C5.61334 9.84045 6.4929 8.57022 7.60667 7.48933C8.72045 6.40844 10.0271 5.55689 11.5267 4.93467C13.0262 4.31244 14.6231 4.00089 16.3173 4C17.8729 4 19.3538 4.26267 20.76 4.788C22.1671 5.31422 23.4053 6.04311 24.4747 6.97467C25.544 7.908 26.3987 9.01911 27.0387 10.308C27.6787 11.5969 27.9987 13.0036 27.9987 14.528C27.9987 16.5884 27.4049 18.2373 26.2173 19.4747C25.0298 20.712 23.4018 21.3316 21.3333 21.3333H18.9693C18.4102 21.3333 17.9422 21.5258 17.5653 21.9107C17.1885 22.2956 17 22.7596 17 23.3027C17 23.86 17.1667 24.3329 17.5 24.7213C17.8333 25.1098 18 25.5582 18 26.0667C18 26.7156 17.8182 27.2 17.4547 27.52C17.092 27.84 16.5911 28 15.9493 28ZM8.66667 16.6667C9.04001 16.6667 9.35556 16.5378 9.61334 16.28C9.87112 16.0222 10 15.7067 10 15.3333C10 14.96 9.87112 14.6444 9.61334 14.3867C9.35556 14.1289 9.04001 14 8.66667 14C8.29334 14 7.97778 14.1289 7.72001 14.3867C7.46223 14.6444 7.33334 14.96 7.33334 15.3333C7.33334 15.7067 7.46223 16.0222 7.72001 16.28C7.97778 16.5378 8.29334 16.6667 8.66667 16.6667ZM12.6667 11.3333C13.04 11.3333 13.3556 11.2044 13.6133 10.9467C13.8711 10.6889 14 10.3733 14 10C14 9.62667 13.8711 9.31111 13.6133 9.05333C13.3556 8.79556 13.04 8.66667 12.6667 8.66667C12.2933 8.66667 11.9778 8.79556 11.72 9.05333C11.4622 9.31111 11.3333 9.62667 11.3333 10C11.3333 10.3733 11.4622 10.6889 11.72 10.9467C11.9778 11.2044 12.2933 11.3333 12.6667 11.3333ZM19.3333 11.3333C19.7067 11.3333 20.0222 11.2044 20.28 10.9467C20.5378 10.6889 20.6667 10.3733 20.6667 10C20.6667 9.62667 20.5378 9.31111 20.28 9.05333C20.0222 8.79556 19.7067 8.66667 19.3333 8.66667C18.96 8.66667 18.6445 8.79556 18.3867 9.05333C18.1289 9.31111 18 9.62667 18 10C18 10.3733 18.1289 10.6889 18.3867 10.9467C18.6445 11.2044 18.96 11.3333 19.3333 11.3333ZM23.3333 16.6667C23.7067 16.6667 24.0222 16.5378 24.28 16.28C24.5378 16.0222 24.6667 15.7067 24.6667 15.3333C24.6667 14.96 24.5378 14.6444 24.28 14.3867C24.0222 14.1289 23.7067 14 23.3333 14C22.96 14 22.6445 14.1289 22.3867 14.3867C22.1289 14.6444 22 14.96 22 15.3333C22 15.7067 22.1289 16.0222 22.3867 16.28C22.6445 16.5378 22.96 16.6667 23.3333 16.6667ZM15.9493 26.6667C16.1831 26.6667 16.3609 26.6156 16.4827 26.5133C16.6053 26.4102 16.6667 26.2613 16.6667 26.0667C16.6667 25.7556 16.5 25.4231 16.1667 25.0693C15.8333 24.7156 15.6667 24.1333 15.6667 23.3227C15.6667 22.3556 15.9889 21.56 16.6333 20.936C17.2778 20.312 18.0667 20 19 20H21.3333C23.0045 20 24.3111 19.508 25.2533 18.524C26.1956 17.54 26.6667 16.208 26.6667 14.528C26.6667 11.8222 25.6262 9.61333 23.5453 7.90133C21.4645 6.18933 19.0556 5.33333 16.3187 5.33333C13.244 5.33333 10.6445 6.36667 8.52001 8.43333C6.39556 10.5 5.33334 13.0222 5.33334 16C5.33334 18.9556 6.37245 21.4724 8.45067 23.5507C10.5289 25.6289 13.0285 26.6676 15.9493 26.6667Z" fill="white"/>
</svg>
