<svg width="27" height="27" viewBox="0 0 27 27" fill="none" xmlns="http://www.w3.org/2000/svg">
<path d="M13.5 8.64915C12.5404 8.64915 11.6024 8.93369 10.8046 9.46678C10.0068 9.99988 9.38494 10.7576 9.01774 11.6441C8.65053 12.5306 8.55446 13.5061 8.74165 14.4472C8.92885 15.3883 9.39092 16.2528 10.0694 16.9313C10.7479 17.6098 11.6124 18.0719 12.5535 18.2591C13.4946 18.4463 14.4701 18.3502 15.3566 17.983C16.2431 17.6158 17.0008 16.9939 17.5339 16.1961C18.067 15.3983 18.3516 14.4603 18.3516 13.5007C18.3499 12.2145 17.8382 10.9815 16.9287 10.072C16.0192 9.16251 14.7862 8.65082 13.5 8.64915ZM13.5 17.0866C12.7908 17.0866 12.0975 16.8763 11.5078 16.4823C10.918 16.0883 10.4584 15.5282 10.187 14.873C9.91561 14.2177 9.8446 13.4967 9.98296 12.8011C10.1213 12.1055 10.4629 11.4666 10.9644 10.9651C11.4659 10.4636 12.1048 10.122 12.8004 9.98368C13.496 9.84531 14.217 9.91633 14.8723 10.1877C15.5275 10.4591 16.0876 10.9188 16.4816 11.5085C16.8756 12.0982 17.0859 12.7915 17.0859 13.5007C17.0859 14.4518 16.7081 15.3639 16.0356 16.0364C15.3631 16.7088 14.451 17.0866 13.5 17.0866ZM22.5703 13.8002C22.5766 13.6009 22.5766 13.4005 22.5703 13.2012L24.1871 11.1804C24.2489 11.103 24.2917 11.0123 24.3121 10.9154C24.3324 10.8185 24.3297 10.7181 24.3042 10.6225C24.0513 9.66909 23.6725 8.75366 23.1778 7.90032C23.1287 7.81371 23.0598 7.73992 22.9768 7.68494C22.8938 7.62996 22.7989 7.59535 22.7 7.58391L20.1213 7.29809C19.9856 7.15255 19.845 7.01192 19.6994 6.87622L19.4126 4.29645C19.4011 4.19754 19.3665 4.10272 19.3116 4.0197C19.2566 3.93668 19.1828 3.86781 19.0962 3.81868C18.2438 3.32552 17.3299 2.94746 16.3782 2.69438C16.2823 2.66932 16.1819 2.66714 16.0849 2.68803C15.988 2.70891 15.8974 2.75228 15.8203 2.81462L13.7953 4.43567C13.5957 4.42937 13.3959 4.42937 13.1962 4.43567L11.1797 2.81356C11.1023 2.75176 11.0115 2.70898 10.9146 2.68864C10.8177 2.66831 10.7174 2.671 10.6218 2.69649C9.66838 2.94941 8.75294 3.32821 7.8996 3.8229C7.81299 3.87203 7.7392 3.9409 7.68422 4.02392C7.62924 4.10694 7.59463 4.20176 7.5832 4.30067L7.3016 6.87938C7.15605 7.01579 7.01542 7.15641 6.87972 7.30126L4.2989 7.59446C4.19999 7.60589 4.10517 7.64051 4.02215 7.69549C3.93913 7.75046 3.87026 7.82426 3.82113 7.91087C3.32797 8.76321 2.94991 9.67714 2.69683 10.6288C2.67237 10.7235 2.67022 10.8226 2.69053 10.9184C2.71084 11.0141 2.75307 11.1038 2.8139 11.1804L4.43496 13.2054C4.42865 13.405 4.42865 13.6048 4.43496 13.8045L2.81285 15.8263C2.75105 15.9037 2.70826 15.9944 2.68793 16.0913C2.66759 16.1882 2.67028 16.2886 2.69578 16.3842C2.94914 17.3358 3.32793 18.2494 3.82218 19.1011C3.87131 19.1877 3.94018 19.2615 4.0232 19.3165C4.10622 19.3715 4.20104 19.4061 4.29996 19.4175L6.87867 19.7033C7.01507 19.8489 7.1557 19.9895 7.30054 20.1252L7.59374 22.7018C7.60518 22.8007 7.63979 22.8955 7.69477 22.9786C7.74975 23.0616 7.82354 23.1305 7.91015 23.1796C8.7625 23.6727 9.67642 24.0508 10.6281 24.3039C10.7238 24.3294 10.8241 24.3321 10.921 24.3117C11.0179 24.2914 11.1087 24.2486 11.186 24.1868L13.2005 22.571C13.3998 22.5774 13.6002 22.5774 13.7995 22.571L15.8256 24.1931C15.9379 24.2828 16.0774 24.3315 16.2211 24.3313C16.2759 24.3311 16.3305 24.324 16.3835 24.3102C17.3351 24.0568 18.2487 23.6781 19.1004 23.1838C19.187 23.1347 19.2608 23.0658 19.3158 22.9828C19.3707 22.8998 19.4054 22.8049 19.4168 22.706L19.7026 20.1273C19.8482 19.9916 19.9888 19.851 20.1245 19.7054L22.7043 19.4186C22.8032 19.4071 22.898 19.3725 22.981 19.3175C23.064 19.2626 23.1329 19.1888 23.182 19.1022C23.6754 18.2499 24.0535 17.336 24.3063 16.3842C24.3318 16.2886 24.3345 16.1882 24.3142 16.0913C24.2938 15.9944 24.2511 15.9037 24.1893 15.8263L22.5703 13.8002ZM22.2434 18.1909L19.7501 18.4683C19.5943 18.4862 19.4507 18.5614 19.3472 18.6792C19.1388 18.9141 18.9165 19.1363 18.6817 19.3447C18.5639 19.4483 18.4887 19.5918 18.4707 19.7476L18.1934 22.2399C17.6096 22.5511 16.9963 22.8034 16.3624 22.9929L14.4039 21.4256C14.2915 21.336 14.1521 21.2873 14.0084 21.2875H13.9704C13.657 21.3054 13.3429 21.3054 13.0296 21.2875C12.8731 21.2779 12.7186 21.3268 12.5961 21.4246L10.6386 22.9929C10.0053 22.8025 9.39266 22.5491 8.8098 22.2367L8.53242 19.7455C8.51446 19.5897 8.43929 19.4461 8.32148 19.3426C8.08663 19.1342 7.8644 18.912 7.65597 18.6771C7.55245 18.5593 7.40888 18.4841 7.25308 18.4662L4.76085 18.1888C4.44989 17.6067 4.19763 16.9952 4.00781 16.3631L5.57507 14.4046C5.6729 14.2821 5.72175 14.1276 5.71218 13.9711C5.69424 13.6578 5.69424 13.3437 5.71218 13.0303C5.72175 12.8738 5.6729 12.7194 5.57507 12.5968L4.00781 10.6393C4.19825 10.006 4.45158 9.39338 4.76402 8.81052L7.25519 8.53313C7.41099 8.51517 7.55456 8.44 7.65808 8.3222C7.86651 8.08735 8.08874 7.86512 8.32359 7.65669C8.44139 7.55317 8.51657 7.40959 8.53453 7.2538L8.81191 4.76157C9.39397 4.45061 10.0055 4.19835 10.6376 4.00852L12.5961 5.57579C12.7186 5.67361 12.8731 5.72247 13.0296 5.7129C13.3429 5.69495 13.657 5.69495 13.9704 5.7129C14.1269 5.72247 14.2813 5.67361 14.4039 5.57579L16.3614 4.00852C16.9947 4.19897 17.6073 4.4523 18.1902 4.76473L18.4676 7.25802C18.4855 7.41381 18.5607 7.55739 18.6785 7.66091C18.9134 7.86934 19.1356 8.09157 19.344 8.32642C19.4475 8.44422 19.5911 8.51939 19.7469 8.53735L22.2391 8.81473C22.55 9.39613 22.8022 10.007 22.9922 10.6383L21.4249 12.5968C21.3271 12.7194 21.2782 12.8738 21.2878 13.0303C21.3058 13.3437 21.3058 13.6578 21.2878 13.9711C21.2782 14.1276 21.3271 14.2821 21.4249 14.4046L22.9922 16.3621C22.8024 16.9953 22.5498 17.608 22.2381 18.1909H22.2434Z" fill="white"/>
</svg>
